<?xml version="1.0" standalone="yes"?>
<svg xmlns="http://www.w3.org/2000/svg" width="1778" height="2293">
    <path style="fill:#231f21; stroke:none;" d="M814 0C796.506 4.15527 778.633 14.4678 763 23.1389C752.156 29.1536 742.11 35.6633 732 42.8589C720.615 50.9624 701.623 58.093 693.893 70.0393C686.154 82.0012 707.482 92.2417 717 89.1704C743.991 80.4607 766.281 55.709 791 42.3086C799.807 37.5339 809.056 33.7241 818 29.2468C821.342 27.5737 825.814 25.9041 827.002 21.9575C829.16 14.782 816.199 6.8877 814 0M833 145.428C824.648 146.625 816.64 149.061 809 152.641C755.515 177.703 758.75 245.505 760.961 296C761.861 316.558 762.101 336.817 766.884 357C770.706 373.125 775.69 388.988 782.781 404C799.569 439.542 825.111 473.504 869 466.866C907.656 461.019 923.37 415.788 926.086 382C928.495 352.022 930.278 322.076 931.015 292C931.819 259.181 931.349 229.13 916.247 199C899.636 165.859 872.38 139.785 833 145.428z" />
    <path style="fill:#555252; stroke:none;" d="M841 161L841 162L848 162L841 161M833 162L834 163L833 162z" />
    <path style="fill:#828080; stroke:none;" d="M834.667 162.333L835.333 162.667L834.667 162.333z" />
    <path style="fill:#bab8b8; stroke:none;" d="M836.667 162.333L837.333 162.667L836.667 162.333z" />
    <path style="fill:#ffffff; stroke:none;" d="M803 402C803.488 396.028 805.41 390.169 808.475 385C832.085 345.18 887.823 371.145 881.7 414C880.699 421.007 878.119 428.167 874.095 434C869.548 440.591 863.362 445.914 856 449C864.252 452.463 875.456 447.419 881.996 442.319C898.724 429.276 905.781 406.199 908.05 386C909.734 371.013 909.745 355.967 911.17 341C915.647 293.953 921.543 238.782 894.946 197C888.579 186.998 881.086 176.077 871 169.548C842.973 151.403 801.568 167.875 787.131 196C780.261 209.384 781.224 226.413 779.83 241C776.226 278.72 776.144 318.889 784.651 356C787.406 368.018 792.382 394.756 803 402z" />
    <path style="fill:#bab8b8; stroke:none;" d="M851.667 162.333L852.333 162.667L851.667 162.333z" />
    <path style="fill:#828080; stroke:none;" d="M853 162L854 163L853 162z" />
    <path style="fill:#555252; stroke:none;" d="M854 162L855 163L854 162M829 163L830 164L829 163z" />
    <path style="fill:#bab8b8; stroke:none;" d="M830.667 163.333L831.333 163.667L830.667 163.333M856.667 163.333L857.333 163.667L856.667 163.333z" />
    <path style="fill:#555252; stroke:none;" d="M858 163L859 164L858 163M825 164L826 165L825 164z" />
    <path style="fill:#828080; stroke:none;" d="M826 164L827 165L826 164z" />
    <path style="fill:#bab8b8; stroke:none;" d="M827 164L828 165L827 164M860 164L861 165L860 164z" />
    <path style="fill:#555252; stroke:none;" d="M861 164L862 165L861 164M822 165L823 166L822 165z" />
    <path style="fill:#bab8b8; stroke:none;" d="M823 165L824 166L823 165z" />
    <path style="fill:#828080; stroke:none;" d="M863 165L864 166L863 165z" />
    <path style="fill:#555252; stroke:none;" d="M864 165L865 166L864 165z" />
    <path style="fill:#828080; stroke:none;" d="M820 166L821 167L820 166z" />
    <path style="fill:#bab8b8; stroke:none;" d="M821 166L822 167L821 166M865 166L866 167L865 166z" />
    <path style="fill:#555252; stroke:none;" d="M866 166L867 167L866 166M817 167L818 168L817 167z" />
    <path style="fill:#bab8b8; stroke:none;" d="M818 167L819 168L818 167M867 167L868 168L867 167z" />
    <path style="fill:#555252; stroke:none;" d="M868 167L869 168L868 167M815 168L816 169L815 168z" />
    <path style="fill:#bab8b8; stroke:none;" d="M816 168L817 169L816 168z" />
    <path style="fill:#828080; stroke:none;" d="M869 168L870 169L869 168z" />
    <path style="fill:#555252; stroke:none;" d="M813 169L814 170L813 169z" />
    <path style="fill:#bab8b8; stroke:none;" d="M814 169L815 170L814 169z" />
    <path style="fill:#555252; stroke:none;" d="M871 169L872 170L871 169z" />
    <path style="fill:#828080; stroke:none;" d="M812 170L813 171L812 170M872 170L873 171L872 170M810 171L811 172L810 171z" />
    <path style="fill:#bab8b8; stroke:none;" d="M873 171L874 172L873 171z" />
    <path style="fill:#555252; stroke:none;" d="M808 172L809 173L808 172z" />
    <path style="fill:#bab8b8; stroke:none;" d="M809 172L810 173L809 172z" />
    <path style="fill:#555252; stroke:none;" d="M875 172L876 173L875 172z" />
    <path style="fill:#828080; stroke:none;" d="M807 173L808 174L807 173z" />
    <path style="fill:#555252; stroke:none;" d="M876 173L877 174L876 173z" />
    <path style="fill:#bab8b8; stroke:none;" d="M806 174L807 175L806 174z" />
    <path style="fill:#828080; stroke:none;" d="M877 174L878 175L877 174z" />
    <path style="fill:#555252; stroke:none;" d="M804 175L805 176L804 175z" />
    <path style="fill:#828080; stroke:none;" d="M878 175L879 176L878 175z" />
    <path style="fill:#231f21; stroke:none;" d="M1176 175.537C1164.87 178.092 1160.58 191.543 1168.33 199.815C1174.4 206.3 1184.59 209.507 1192 214.344C1206.23 223.634 1217.64 233.436 1230 245.089C1235.36 250.145 1245.73 267.996 1254 265.833C1271.36 261.291 1256.83 242.426 1251 235C1235.49 215.256 1222.04 197.955 1200 185.011C1193.38 181.122 1184.13 173.671 1176 175.537z" />
    <path style="fill:#828080; stroke:none;" d="M803 176L804 177L803 176M879 176L880 177L879 176z" />
    <path style="fill:#bab8b8; stroke:none;" d="M802 177L803 178L802 177z" />
    <path style="fill:#828080; stroke:none;" d="M880 177L881 178L880 177z" />
    <path style="fill:#555252; stroke:none;" d="M800 178L801 179L800 178z" />
    <path style="fill:#bab8b8; stroke:none;" d="M801 178L802 179L801 178z" />
    <path style="fill:#555252; stroke:none;" d="M881 178L882 179L881 178M799 179L800 180L799 179M882 179L883 180L882 179M798 180L799 181L798 180M797 181L798 182L797 181z" />
    <path style="fill:#bab8b8; stroke:none;" d="M883 181L884 182L883 181z" />
    <path style="fill:#555252; stroke:none;" d="M796 182L797 183L796 182z" />
    <path style="fill:#bab8b8; stroke:none;" d="M884 182L885 183L884 182z" />
    <path style="fill:#555252; stroke:none;" d="M795 183L796 184L795 183z" />
    <path style="fill:#828080; stroke:none;" d="M885 183L886 184L885 183z" />
    <path style="fill:#555252; stroke:none;" d="M794 184L795 185L794 184M886 184L887 185L886 184z" />
    <path style="fill:#bab8b8; stroke:none;" d="M886 185L887 186L886 185M793 186L794 187L793 186M887 186L888 187L887 186M792 187L793 188L792 187z" />
    <path style="fill:#828080; stroke:none;" d="M888 187L889 188L888 187M791 188L792 189L791 188z" />
    <path style="fill:#555252; stroke:none;" d="M889 188L890 189L889 188M790 189L791 190L790 189z" />
    <path style="fill:#bab8b8; stroke:none;" d="M889 189L890 190L889 189M790 190L791 191L790 190M890 190L891 191L890 190z" />
    <path style="fill:#828080; stroke:none;" d="M789 191L790 192L789 191z" />
    <path style="fill:#555252; stroke:none;" d="M891 191L892 192L891 191M788 192L789 193L788 192M892 192L893 193L892 192z" />
    <path style="fill:#bab8b8; stroke:none;" d="M788 193L789 194L788 193M892 193L893 194L892 193z" />
    <path style="fill:#555252; stroke:none;" d="M787 194L788 195L787 194z" />
    <path style="fill:#828080; stroke:none;" d="M893 194L894 195L893 194z" />
    <path style="fill:#bab8b8; stroke:none;" d="M787 195L788 196L787 195z" />
    <path style="fill:#555252; stroke:none;" d="M894 195L895 196L894 195z" />
    <path style="fill:#828080; stroke:none;" d="M786 196L787 197L786 196z" />
    <path style="fill:#bab8b8; stroke:none;" d="M894 196L895 197L894 196z" />
    <path style="fill:#828080; stroke:none;" d="M895 197L896 198L895 197z" />
    <path style="fill:#555252; stroke:none;" d="M785 198L786 199L785 198z" />
    <path style="fill:#bab8b8; stroke:none;" d="M785 199L786 200L785 199M896 199L897 200L896 199z" />
    <path style="fill:#555252; stroke:none;" d="M897 200L898 201L897 200z" />
    <path style="fill:#828080; stroke:none;" d="M784 201L785 202L784 201z" />
    <path style="fill:#bab8b8; stroke:none;" d="M897 201L898 202L897 201M784 202L785 203L784 202z" />
    <path style="fill:#828080; stroke:none;" d="M898 202L899 203L898 202z" />
    <path style="fill:#555252; stroke:none;" d="M783 204L784 205L783 204z" />
    <path style="fill:#828080; stroke:none;" d="M899 204L900 205L899 204M783 205L784 206L783 205z" />
    <path style="fill:#bab8b8; stroke:none;" d="M783 206L784 207L783 206z" />
    <path style="fill:#828080; stroke:none;" d="M900 206L901 207L900 206M901 208L902 209L901 208z" />
    <path style="fill:#555252; stroke:none;" d="M782 209L783 210L782 209z" />
    <path style="fill:#828080; stroke:none;" d="M782 210L783 211L782 210M902 210L903 211L902 210z" />
    <path style="fill:#bab8b8; stroke:none;" d="M782.333 211.667L782.667 212.333L782.333 211.667z" />
    <path style="fill:#828080; stroke:none;" d="M903 212L904 213L903 212z" />
    <path style="fill:#555252; stroke:none;" d="M904 214L905 215L904 214M781.333 215.667L781.667 216.333L781.333 215.667z" />
    <path style="fill:#bab8b8; stroke:none;" d="M904 215L905 216L904 215z" />
    <path style="fill:#555252; stroke:none;" d="M905 216L906 217L905 216z" />
    <path style="fill:#828080; stroke:none;" d="M781.333 217.667L781.667 218.333L781.333 217.667z" />
    <path style="fill:#bab8b8; stroke:none;" d="M905 217L906 218L905 217M781.333 219.667L781.667 220.333L781.333 219.667z" />
    <path style="fill:#828080; stroke:none;" d="M906 219L907 220L906 219z" />
    <path style="fill:#bab8b8; stroke:none;" d="M906 220L907 221L906 220z" />
    <path style="fill:#555252; stroke:none;" d="M907 221L908 222L907 221z" />
    <path style="fill:#828080; stroke:none;" d="M907 222L908 223L907 222z" />
    <path style="fill:#bab8b8; stroke:none;" d="M907 223L908 224L907 223z" />
    <path style="fill:#555252; stroke:none;" d="M780.333 224.667L780.667 225.333L780.333 224.667M908 224L909 225L908 224z" />
    <path style="fill:#828080; stroke:none;" d="M908 225L909 226L908 225M780.333 226.667L780.667 227.333L780.333 226.667z" />
    <path style="fill:#bab8b8; stroke:none;" d="M908 226L909 227L908 226z" />
    <path style="fill:#555252; stroke:none;" d="M909 227L910 228L909 227z" />
    <path style="fill:#bab8b8; stroke:none;" d="M780 228L780 232L781 232L780 228z" />
    <path style="fill:#828080; stroke:none;" d="M909 228L910 229L909 228z" />
    <path style="fill:#bab8b8; stroke:none;" d="M909 229L910 230L909 229z" />
    <path style="fill:#555252; stroke:none;" d="M910 231L911 232L910 231z" />
    <path style="fill:#bab8b8; stroke:none;" d="M910.333 232.667L910.667 233.333L910.333 232.667z" />
    <path style="fill:#555252; stroke:none;" d="M779 234L779 237L780 237L779 234M911 235L912 236L911 235z" />
    <path style="fill:#bab8b8; stroke:none;" d="M911.333 236.667L911.667 237.333L911.333 236.667z" />
    <path style="fill:#828080; stroke:none;" d="M779 237L779 240L780 240L779 237z" />
    <path style="fill:#555252; stroke:none;" d="M912.333 239.667L912.667 240.333L912.333 239.667z" />
    <path style="fill:#bab8b8; stroke:none;" d="M779 240L779 244L780 244L779 240z" />
    <path style="fill:#828080; stroke:none;" d="M912 241L913 242L912 241z" />
    <path style="fill:#bab8b8; stroke:none;" d="M912.333 242.667L912.667 243.333L912.333 242.667z" />
    <path style="fill:#555252; stroke:none;" d="M913 245L913 248L914 248L913 245M778 247L778 251L779 251L778 247z" />
    <path style="fill:#828080; stroke:none;" d="M913.333 248.667L913.667 249.333L913.333 248.667z" />
    <path style="fill:#bab8b8; stroke:none;" d="M913 250L913 253L914 253L913 250z" />
    <path style="fill:#828080; stroke:none;" d="M778 251L778 254L779 254L778 251z" />
    <path style="fill:#bab8b8; stroke:none;" d="M778 254L778 259L779 259L778 254z" />
    <path style="fill:#555252; stroke:none;" d="M914 256L914 262L915 262L914 256z" />
    <path style="fill:#231f21; stroke:none;" d="M1108 259.428C1078.83 263.608 1056.14 291.872 1043.76 317C1032.76 339.309 1033.02 363.75 1031.96 388C1030.05 431.648 1028.77 474.38 1041 517C1051.15 552.381 1069.35 597.17 1115 591.714C1151.79 587.318 1168.58 558.674 1180.42 527C1202.67 467.499 1217.59 391.714 1197 330C1184.59 292.804 1151.41 253.208 1108 259.428z" />
    <path style="fill:#828080; stroke:none;" d="M914 262L914 285L915 285L914 262z" />
    <path style="fill:#555252; stroke:none;" d="M777 265L777 275L778 275L777 265z" />
    <path style="fill:#828080; stroke:none;" d="M777 275L777 290L778 290L777 275z" />
    <path style="fill:#555252; stroke:none;" d="M1108 276L1109 277L1108 276z" />
    <path style="fill:#828080; stroke:none;" d="M1109.67 276.333L1110.33 276.667L1109.67 276.333z" />
    <path style="fill:#bab8b8; stroke:none;" d="M1111 276L1111 277L1115 277L1111 276z" />
    <path style="fill:#ffffff; stroke:none;" d="M1060 519L1061 519C1073.52 489.13 1111.19 485.061 1128.53 513C1141.01 533.109 1135.15 551.41 1126 571C1153.37 559.545 1161.91 529.022 1169.72 503C1187.83 442.645 1206.66 357.256 1163.19 303C1157.97 296.488 1151.86 290.802 1145 286.039C1099.6 254.496 1057.24 311.394 1051.58 353C1048.46 375.865 1048 399.935 1048 423C1048 455.639 1049.97 487.646 1060 519z" />
    <path style="fill:#bab8b8; stroke:none;" d="M1118 276L1118 277L1122 277L1118 276z" />
    <path style="fill:#828080; stroke:none;" d="M1122 276L1123 277L1122 276z" />
    <path style="fill:#555252; stroke:none;" d="M1123.67 276.333L1124.33 276.667L1123.67 276.333M1103 277L1104 278L1103 277z" />
    <path style="fill:#828080; stroke:none;" d="M1104 277L1105 278L1104 277z" />
    <path style="fill:#bab8b8; stroke:none;" d="M1105.67 277.333L1106.33 277.667L1105.67 277.333M1126 277L1127 278L1126 277z" />
    <path style="fill:#828080; stroke:none;" d="M1127 277L1128 278L1127 277z" />
    <path style="fill:#555252; stroke:none;" d="M1128 277L1129 278L1128 277M1100 278L1101 279L1100 278z" />
    <path style="fill:#828080; stroke:none;" d="M1101 278L1102 279L1101 278z" />
    <path style="fill:#bab8b8; stroke:none;" d="M1102 278L1103 279L1102 278M1130 278L1131 279L1130 278z" />
    <path style="fill:#555252; stroke:none;" d="M1131 278L1132 279L1131 278M1098 279L1099 280L1098 279z" />
    <path style="fill:#bab8b8; stroke:none;" d="M1099 279L1100 280L1099 279M1133 279L1134 280L1133 279z" />
    <path style="fill:#555252; stroke:none;" d="M1134 279L1135 280L1134 279z" />
    <path style="fill:#828080; stroke:none;" d="M1097 280L1098 281L1097 280z" />
    <path style="fill:#bab8b8; stroke:none;" d="M1135 280L1136 281L1135 280z" />
    <path style="fill:#555252; stroke:none;" d="M1136 280L1137 281L1136 280z" />
    <path style="fill:#bab8b8; stroke:none;" d="M1096 281L1097 282L1096 281M1137 281L1138 282L1137 281z" />
    <path style="fill:#555252; stroke:none;" d="M1138 281L1139 282L1138 281M1094 282L1095 283L1094 282z" />
    <path style="fill:#bab8b8; stroke:none;" d="M1095 282L1096 283L1095 282M1139 282L1140 283L1139 282z" />
    <path style="fill:#555252; stroke:none;" d="M1140 282L1141 283L1140 282M1093 283L1094 284L1093 283z" />
    <path style="fill:#828080; stroke:none;" d="M1141 283L1142 284L1141 283M1092 284L1093 285L1092 284z" />
    <path style="fill:#bab8b8; stroke:none;" d="M1142 284L1143 285L1142 284z" />
    <path style="fill:#555252; stroke:none;" d="M1143 284L1144 285L1143 284M914 285L914 293L915 293L914 285z" />
    <path style="fill:#bab8b8; stroke:none;" d="M1091 285L1092 286L1091 285z" />
    <path style="fill:#828080; stroke:none;" d="M1144 285L1145 286L1144 285z" />
    <path style="fill:#bab8b8; stroke:none;" d="M1090 286L1091 287L1090 286M1145 286L1146 287L1145 286z" />
    <path style="fill:#555252; stroke:none;" d="M1146 286L1147 287L1146 286M1088 287L1089 288L1088 287M1147 287L1148 288L1147 287M1087 288L1088 289L1087 288z" />
    <path style="fill:#828080; stroke:none;" d="M1148 288L1149 289L1148 288M1086 289L1087 290L1086 289z" />
    <path style="fill:#bab8b8; stroke:none;" d="M1149 289L1150 290L1149 289z" />
    <path style="fill:#555252; stroke:none;" d="M777 290L777 299L778 299L777 290z" />
    <path style="fill:#828080; stroke:none;" d="M1085 290L1086 291L1085 290z" />
    <path style="fill:#bab8b8; stroke:none;" d="M1150 290L1151 291L1150 290z" />
    <path style="fill:#828080; stroke:none;" d="M1084 291L1085 292L1084 291z" />
    <path style="fill:#555252; stroke:none;" d="M1152 291L1153 292L1152 291z" />
    <path style="fill:#bab8b8; stroke:none;" d="M1083 292L1084 293L1083 292z" />
    <path style="fill:#555252; stroke:none;" d="M1153 292L1154 293L1153 292z" />
    <path style="fill:#bab8b8; stroke:none;" d="M1082 293L1083 294L1082 293z" />
    <path style="fill:#828080; stroke:none;" d="M1154 293L1155 294L1154 293z" />
    <path style="fill:#bab8b8; stroke:none;" d="M1081 294L1082 295L1081 294z" />
    <path style="fill:#828080; stroke:none;" d="M1155 294L1156 295L1155 294z" />
    <path style="fill:#bab8b8; stroke:none;" d="M1080 295L1081 296L1080 295z" />
    <path style="fill:#828080; stroke:none;" d="M1156 295L1157 296L1156 295M1079 296L1080 297L1079 296M1157 296L1158 297L1157 296M1078 297L1079 298L1078 297M1158 297L1159 298L1158 297M1077 298L1078 299L1077 298M1159 298L1160 299L1159 298z" />
    <path style="fill:#555252; stroke:none;" d="M1076 299L1077 300L1076 299z" />
    <path style="fill:#828080; stroke:none;" d="M1160 299L1161 300L1160 299z" />
    <path style="fill:#bab8b8; stroke:none;" d="M913 300L913 306L914 306L913 300z" />
    <path style="fill:#555252; stroke:none;" d="M1075 300L1076 301L1075 300M1161 300L1162 301L1161 300M1074 301L1075 302L1074 301M1162 301L1163 302L1162 301z" />
    <path style="fill:#bab8b8; stroke:none;" d="M1074 302L1075 303L1074 302M1162 302L1163 303L1162 302M1073 303L1074 304L1073 303M1163 303L1164 304L1163 303M778 304L778 310L779 310L778 304M1072 304L1073 305L1072 304z" />
    <path style="fill:#828080; stroke:none;" d="M1164 304L1165 305L1164 304M1071 305L1072 306L1071 305z" />
    <path style="fill:#555252; stroke:none;" d="M1165 305L1166 306L1165 305z" />
    <path style="fill:#828080; stroke:none;" d="M913 306L913 311L914 311L913 306z" />
    <path style="fill:#555252; stroke:none;" d="M1070 306L1071 307L1070 306z" />
    <path style="fill:#bab8b8; stroke:none;" d="M1070 307L1071 308L1070 307M1166 307L1167 308L1166 307z" />
    <path style="fill:#231f21; stroke:none;" d="M458 318L455 317L456 321L451 321C450.743 323.381 448.566 327.384 448 323L447 323L446 328L433 337L434 334L438 331L428 338L428 339L431 339L431 340C426.068 341.039 423.636 342.067 422 347C415.903 344.561 410.793 350.557 406 354C406.533 358.367 405.45 360.288 401 361L402 365L388 368L389 371C380.461 373.281 361.148 383.431 357.684 392.005C354.184 400.664 359.55 411.881 362 420L364 418L365 418C364.079 423.28 364.772 425.306 370 427L370 436L373 435L373 440L384 447L382 450L382 451L385 452L393 463L394 463L398 462L398 463L395 464L395 465L398 465L400 470L401 470L407 469L404 472L404 473L415 483L417 481L418 481L420 488L426 490L427 490L427 494L441 501L441 505L448 504L448 505L446 505L446 506L449 507C449.015 514.026 460.052 518.495 466 518L465 522L476 528L474 525L475 524L477 528C481.86 532.355 492.023 541.758 499 538L500 541C502.668 541 504.749 542.502 503 545L527 554L527 555L525 556L536 561L540 558C540.25 563.493 544.04 564.65 549 564C549.86 567.081 550.908 567.522 554 567L558 568L559 571L573 575C578.111 573.99 591.767 580.526 596 584C598.743 583.539 601.514 582.707 602 586L615 587L614 590L624 586L623 593L642 594L642 598L678 611L683 608L681 610L681 611C686.828 614.404 694.151 618.826 701 617C704.914 623.557 718.695 627.585 726 627C727.172 632.625 736.94 635.051 742 634L745 635C748.041 643.745 763.277 641.965 769 648L772 647C773.937 650.349 776.184 651.212 780 651C783.392 656.113 791.366 655.953 797 656C798.138 662.706 803.556 661.684 809 661L814 668L815 668L823 666L821 669L821 670L826 673L826 668L828 668L827 674L829 675L830 675C832.972 672.032 835.146 673.167 839 674L839 675L834 676L834 677L853 685L858 682L856 686L869 690.833L873 687L870 692L870 693C874.232 695.402 877.272 696.588 882 695L882 699L883 699L883 697L884 697C884.645 702.48 895.477 704.546 900 706L903 704L901 707L916 712C917.719 714.976 919.706 715.801 923 715L929 720L930 717L931 717L933 722L938 720L939 725L962 734L960 735L960 736L967 737C968.696 740.008 972.873 744.133 976 741L977 741C977.726 745.22 980.223 746.398 984 748L990 746L988 749L988 750L1004 758L1002 755L1010.02 763.381L1033.71 776.696L1042 783L1054 785L1054 786L1052 789L1061 791C1061.46 795.019 1072.37 804.186 1073 799L1074 799C1077.32 806.592 1086.75 812.972 1095 811C1096.28 818.737 1102.5 821.798 1110 821C1110.65 829.401 1126.05 836.224 1133 840L1136 839C1137.24 845.162 1143.92 844.443 1149 845L1148 848L1161 854L1166 860L1169 857L1178 863L1175 866L1187 869L1188 866L1190 873L1195 878L1199 877L1197 881L1197 904L1200 903L1197 908L1200 907L1196 909L1196 910L1201 910L1200 916L1199 916L1199 913L1198 913C1192.85 922.949 1187.63 934.415 1189 946L1185 946L1185 953L1178 964L1181 964L1175 974L1179 974L1173 980L1176 986L1169 988L1164 1013L1164 1014L1161 1015L1164 1018L1160 1017L1164 1019L1164 1020L1160 1020L1159 1022L1161 1023L1161 1024C1154.12 1025.47 1152.04 1049.77 1154 1055C1152.06 1055.74 1149.92 1056.44 1152 1058L1152 1059C1147.2 1060.03 1149.31 1068.16 1150 1072L1148 1069L1147 1069L1148 1076L1148 1077L1142 1092L1145 1096C1137.75 1098.4 1137.73 1115.31 1136 1122L1139 1122L1139 1125L1137 1124C1136.06 1128.41 1131.35 1136.26 1135 1140L1135 1141L1133 1148L1136 1147L1132 1149L1133 1155L1128 1169L1131 1174L1127 1173L1126 1190L1127 1195L1123 1197L1124 1203L1127 1203L1121 1209L1116 1239L1120 1245L1115 1244C1114.48 1246.54 1114.41 1246.69 1117 1247L1117 1248C1112.64 1250.56 1113.15 1254.45 1114 1259L1112 1259L1114 1261L1113 1269L1111 1275C1106.01 1278.14 1107.51 1283.85 1107.03 1289C1106.32 1296.62 1103.3 1299.74 1105 1308L1102 1307L1100 1312L1105 1315C1097.3 1314.41 1099.51 1323.12 1099 1329L1098 1329L1098 1325L1097 1325C1096.77 1329.48 1091.41 1342 1096 1343L1096 1344C1092.97 1346.25 1091.03 1349.56 1093 1353C1090.13 1354.56 1090.95 1357.36 1094 1358L1094 1359C1087.37 1360.45 1090.64 1365.76 1090 1371L1087 1369L1088 1372L1091 1372L1090 1376L1085 1376L1084 1382L1087 1384L1087 1385L1085 1385L1087 1386L1087 1387L1083 1387L1082 1393L1085 1395L1082 1394L1081 1396L1081 1398L1083 1398L1083 1399C1079.8 1401.94 1078.95 1404.8 1080 1409C1076.2 1411.13 1072.47 1428.81 1078 1430L1075 1438L1075 1439L1077 1442L1072 1440L1071 1449C1073.13 1452.12 1072.14 1454.16 1069 1456L1067 1468L1065 1480L1068 1480L1067 1483L1065 1481C1063.89 1484.06 1063.43 1486.24 1067 1487L1067 1488L1064 1488L1065 1492L1062 1491L1060 1501L1059 1517L1056 1517L1055 1528C1049.26 1532 1046.95 1547.24 1046 1554L1052 1558C1045.54 1559.43 1044.28 1562.65 1044 1569L1041 1568C1039.69 1571.72 1039.47 1573.87 1042 1577C1033.76 1581.05 1035.08 1589.21 1034 1597L1029 1604L1028 1609L1031 1610L1031 1611C1024.49 1612.08 1025.82 1617.69 1026 1623L1024 1621L1023 1621L1023 1634C1016.74 1635.72 1016.1 1641.33 1015 1647L1018 1646L1018 1651L1016 1648L1013 1648C1011.59 1653.94 1007.77 1659.55 1012 1665L1009 1663L1008 1663L1007 1674L1005 1673C1002.82 1676.25 1001.99 1678.1 1005 1681L1005 1682L1000 1685L999 1686L993 1700L980 1716L980 1717C983.873 1721.69 975.738 1722.73 973 1726L977 1727L977 1728L973 1728L974 1731L972 1728C964.352 1733.4 948.025 1747.17 945 1756L943 1754L935 1760L936 1763C929.912 1762.35 919.034 1768.04 917 1774C912.845 1773.76 910.728 1774.77 910 1779L909 1779L902 1779L904 1783L897 1785L897 1782L890 1788L880 1788L880 1789L884 1792L882 1790L857.861 1797.53L851 1800L850 1800C846.889 1796.5 843.176 1799.28 842 1803L841 1803L841 1800L828 1801L828 1802L832 1802L832 1803L830 1804L832 1804L826 1809L827 1802C822.385 1802.42 816.885 1802 814 1806C802.342 1801.75 792.351 1805.77 781 1807L784 1805L784 1804L780 1807L779 1807C773.562 1800.78 759.809 1804.6 753 1806L753 1802L748 1804L725 1799L723 1796L723 1800L714 1799L716 1794L694 1786L694 1790L697 1789L692 1792L692 1788L689 1786L683 1781L679 1783C677.993 1777.14 670.502 1773.96 665 1774L654 1769L654 1770L658 1771L658 1772C653.421 1771.27 650.976 1768.51 650 1764L637 1757L634 1759L634 1758L636 1755C631.329 1754.24 627.556 1753.97 626 1749L623 1750L613 1740L612 1740L607 1743C608.348 1734.22 602.768 1735.13 596 1735C596.38 1729.88 594.456 1727.37 590 1725L591 1728L585 1730L585 1727L581 1728L583 1724L584 1724L589 1727C587.633 1724.2 579.407 1713.6 578 1720L576 1715L562 1708C561.764 1701.43 552.878 1695.6 547 1694C546.043 1689.71 538.381 1682.93 534 1683C532.027 1675.98 520.663 1665.28 514 1662C513.04 1656.38 507.762 1651.8 502 1652L502 1648L499 1648C499.896 1645.12 500.211 1643.63 497 1643L497 1642L499 1641L487 1625L483 1616L478 1613L478 1612L480 1609L479 1609L476 1611L478 1609L478 1608L478 1607C475.393 1605.44 475.65 1604.41 478 1605L471 1581L466 1581L464 1578L468 1577C467.862 1573.12 471.301 1567.72 465 1567L461 1570C465.153 1562.22 467.006 1560.49 467 1551L466 1551L464 1553L464 1549C474.997 1541.29 463.87 1529.86 455 1528L455 1531L452 1531L452 1530C453.6 1525.8 444.074 1524.99 441 1524L442 1526L441 1526L437 1527C435.873 1522.72 433.171 1521.66 429 1521L430 1524L427 1524L427 1523L428 1520L423 1520L412 1516C408.037 1521.05 404.336 1518.17 399 1517L398 1511L393 1513C392.185 1510.26 388.603 1506.03 388 1511L387 1511C381.462 1502.96 369.196 1504.5 361 1501L361 1504C358.909 1502.14 350.21 1501.99 353 1498L348 1499L347 1499C345.284 1496.01 343.582 1497.6 342 1500L341 1497L344 1496L344 1495L332 1495L332 1498L330 1497C328.872 1502.06 323.162 1515.88 327 1519L327 1515L328 1522L326 1520L325 1523L329 1523L327 1528L326 1528C324.575 1521.39 315.741 1540.82 323 1545L323 1546C318.066 1549.92 318.162 1555.12 317 1561L321 1561L321 1562L319 1563L316 1565L316 1574L319 1573L319 1576L316 1575L318 1589C314.656 1591.92 314.656 1603.08 318 1606C316.943 1609.25 315.65 1615.4 320 1616L318 1618L318 1619L322 1625L318 1625L319 1631L325 1632L325 1637L321 1638L323 1650L328 1647L328 1648C325.488 1649.36 326.524 1650.6 329 1651L328 1654L324 1653L335 1691L341 1695L338 1696L348 1713L345 1713L345 1714L348 1716L351 1720C350.817 1724.68 355.08 1735.82 360 1737L371 1758L375 1757L374 1761L378 1761L378 1762L375 1763C377.733 1768.49 381.353 1774.31 387 1777L386 1779C394.045 1785.29 394.89 1794.21 407 1793L405 1795L405 1796L408 1797L405 1797C405.492 1803.78 410.773 1811.69 418 1812L422 1813L419 1815L422 1821L427 1822C426.922 1827.2 430.401 1828.87 435 1827L435 1834L441 1833L439 1837L440 1839L448 1843L447 1845L453 1848C453.37 1850.98 455.084 1850.86 458 1851L460 1854L459 1856L473 1864C474.555 1871.69 482.783 1876.89 489 1881L489 1878L493 1879C492.72 1883.82 497.649 1891.16 503 1889L503 1893L512 1896L517 1900C518.02 1905.76 522.177 1904.96 527 1905L525 1907L525 1908C526.701 1909.99 528.524 1912.8 531 1911L532 1911C533.197 1915.34 535.626 1916.68 540 1917C541 1920.04 541.863 1920.49 545 1920L547 1922L550 1927L551 1927L552 1922L554 1926L555 1924L556 1924L556 1928L557 1928L557 1925L558 1925C558.168 1930.06 564.379 1939.41 570 1936L571 1936L572 1940C574.31 1941.56 577.417 1945.81 578 1941L579 1941L581 1945L583 1943L584 1943L586 1948L585 1946L586 1946C588.723 1949.62 590.638 1950 595 1949L599 1956C611.055 1960.5 625.972 1972.57 639 1972L640 1975L643 1974C647.404 1980.43 654.657 1977.77 661 1977L659 1982L681 1986L681 1989L693 1991L693 1992L698 1989L698 1992C701.6 1993.36 713.076 1998.79 714 1993L715 1993L715 1997C717.993 1996.94 719.346 1997.05 720 1994C730.371 2001.45 737.358 1998.16 749 1997L747 2001L757 2000C760.952 2003.18 780.508 2005.99 784 2002L781 2003L781 2000L784 2001L785 1998L786 2001L787 2001L789 1999C788.973 2001.62 789.432 2001.55 792 2001L789 2003L789 2004L810 2004L813 1999L815 2000L816 2003L831 2002L831.015 2038L829.039 2114L833 2278L761 2275L760 2288L847 2292C847 2194.83 841.826 2098.24 846 2001L861 1998L860 1995L877 1997C878.744 1994.04 880.821 1992.87 883 1996L891 1994L905 1988L911 1990C923.633 2089.96 919 2191.32 919 2292L988 2277L985 2264L932 2275L931.985 2057L925 1982C929.133 1983.81 932.51 1984.31 935 1980L953 1976L956 1971C957.514 1973.36 958.953 1974.26 961 1972L959 1973L959 1972L961 1969C967.339 1971.62 971.878 1969.07 978 1967L977 1962L980 1965L986 1961C987.588 1961.38 993.045 1961.07 990 1959L990 1958L1001 1956L1002 1954L1002 1953L999 1953L999 1952L1005 1953L1022 1942L1022 1944L1030 1940L1030 1939L1027 1939L1028 1936C1031.95 1937.94 1034.19 1936.91 1038 1935L1036 1932C1043.15 1931.22 1055.63 1926.17 1056 1918L1062 1918L1059 1915L1072.78 1908.91L1091 1892L1090 1887L1090 1886L1093 1888L1097 1888L1100 1881C1109.81 1879.48 1127.84 1859.17 1127 1849L1133 1848L1136 1841L1136 1840C1134.46 1838.17 1136.6 1836.91 1137 1840L1140 1835L1145 1830L1148 1822L1148 1821C1155.64 1818.65 1162.61 1803.55 1163 1796C1166.58 1795.53 1167.69 1791.1 1169.24 1788C1173.68 1779.12 1178.17 1772.02 1176 1762L1181 1763C1180.89 1759.01 1180.67 1753.45 1185 1752L1187 1747L1184 1746L1184 1745L1188 1745L1188 1738C1190.1 1735.83 1192.53 1733.51 1190 1731L1190 1726L1189 1726L1189 1728L1188 1728L1193 1727L1195 1725L1196 1716L1194 1718L1193 1718L1195 1710C1201.39 1708.88 1202.22 1701.68 1199 1697C1207.09 1694.05 1209.16 1682.01 1201 1678L1201 1677L1209 1676L1213 1655C1221.32 1650.51 1215.78 1635.13 1217 1629L1221 1631L1223 1611C1230.09 1606.53 1232.42 1582.1 1233 1574L1229 1573L1233 1573L1233 1563C1236.63 1562.22 1236.58 1559.28 1236 1556L1232 1558L1232 1557L1233 1553L1238 1550L1235 1549C1236.95 1542.66 1241.99 1533.76 1235 1529L1235 1528L1241 1528C1240.79 1525.14 1240.83 1524 1238 1524L1241 1522L1242 1516L1239 1517L1238 1511L1238 1510L1242 1508L1241 1506L1243 1500L1238 1498L1244 1499L1244 1491L1241 1491L1245 1478L1245 1477L1243 1474C1247.43 1473.44 1246.52 1463.05 1247 1459L1244 1463L1241 1464L1240 1464L1240 1460L1244 1460L1245 1452L1241 1451L1244 1447L1246 1449L1246 1453L1247 1453C1247.47 1449.17 1248.36 1446.45 1245 1444L1245 1441C1251.66 1440.22 1246.36 1431.52 1249 1428L1246 1427L1250 1418L1246 1418L1246 1417L1250 1417L1250 1416L1243 1417L1251 1412L1251 1406L1247 1406L1247 1397L1250 1399C1253.85 1395.89 1253.04 1390.39 1252 1386L1249 1387L1248 1385L1254 1379L1251 1373L1255 1372L1254 1366L1255 1358C1261.36 1352.01 1258.58 1334.36 1256 1327L1260 1326L1262 1308L1259 1303L1259 1302C1261.33 1300.25 1262.77 1300.21 1260 1298L1263 1297L1263 1274C1266.85 1273.36 1264.26 1267.46 1263 1265C1267.59 1262.03 1266.77 1250.33 1267 1245L1263 1245L1264 1238L1266 1241L1267 1241L1266 1226L1266 1225L1266 1224C1269.18 1222.17 1269.21 1211.67 1265 1211L1269 1208L1270 1195L1268 1196L1268 1195L1269 1190L1266 1189L1266 1185L1269 1184L1270 1184L1271 1174L1268 1173L1271 1172L1271 1171L1267 1166L1268 1166L1270 1170L1272 1157L1270 1152L1272 1153L1274 1126L1271 1122C1274.52 1121.59 1276.24 1116.51 1272 1116L1272 1115L1276 1115L1279 1087L1276 1090L1275 1090L1276 1080L1280 1080L1278 1077L1281 1076L1281 1075L1273 1073L1281 1074L1280 1067L1277 1069L1276 1068L1276 1066C1280.57 1064.27 1282.8 1060.85 1282 1056L1286 1048L1285 1035L1288 1034C1287.06 1031.71 1286.44 1031.34 1289 1031L1289 1030C1284.08 1027.57 1286.61 1021.85 1290 1019L1292 1022L1290 1017L1294 1012L1290 1010L1293 1010L1297 1004L1297 1003L1293 1002L1293 1001L1297 1002L1304 980L1300 980L1300 979L1305 976L1306 976L1304 968L1307 969C1310.13 961.72 1310.73 954.696 1309 947C1318.53 943.846 1314.15 928.036 1311 922L1312 922L1313 924C1319.04 915.064 1317 901.356 1317 891L1312 890C1314.55 887.116 1319.58 876.91 1313 876L1312 853L1311 853L1311 855L1310 855L1311 848C1304.74 848 1311.83 834.21 1305 832L1307 830L1301 828L1301 826L1306 821L1302 817L1302 816L1305 816L1302 811L1301 799L1295 798L1296 790L1297 790L1298 793L1299 793C1298.43 789.201 1297.82 786.33 1294 785C1295.36 779.372 1292.82 775.46 1287 775C1287.54 772.613 1289 768.919 1286 769C1287.74 763.765 1281.72 762.394 1281 766L1280 766L1279 756L1277 754L1274 755C1272.77 750.334 1268.87 744.979 1264 744C1262.86 741.699 1261.46 738.944 1259 741L1252 740L1252 739L1256 735C1245.53 728.88 1235.74 718.294 1223 719C1222.79 714.724 1219.93 713.719 1216 713C1213.38 716.797 1209.73 714.863 1207 712L1204 707L1199 708L1201 710L1196 712L1197 706L1195 704L1188 704C1187.49 699.777 1181.8 698.847 1178 698L1178 702L1175 697L1175 696L1159 691L1158 696L1157 696L1158 691L1151 693L1151 692L1154 692L1153 687L1145 687L1145 686L1148 686L1148 685L1142 682L1136 682C1133.58 678.45 1130.63 677.56 1127 680L1118 671L1118 675L1113 675L1114 669L1108 668L1105 671L1107 669L1107 668L1103 672L1104 666C1100.5 663.132 1098.86 660.084 1094 661C1091.56 654.556 1085.13 653.671 1079 653L1081 651L1065 644C1062.1 638.884 1055.75 635.942 1050 637L1040 630L1039 634L1037 630L1041 629L1041 628L1035 628L1035 627L1037 626C1027.61 621.974 1013.27 609.204 1003 612L1003 608L997 610C996.718 606.458 994.378 602.282 991 606L990 606L981 597L980 600L978 600L974 597L974 596L978 596L978 595L973 595C973 591.167 961.965 584.953 961 591L960 591L958 589L959 585L952 584L947 582L941 576L941 580L924 567L918 570L919 564L910 559C907.109 559.258 904.455 559.266 904 556L877 542L873 541L869 542L870 539L863 540C862.483 533.303 847.339 525.638 841 526C840.133 521.828 835.718 520.548 832 519L834 524C829.797 523.671 828.747 522.134 829 518L827 516L824 517L819 514L812 511C810.979 506.087 806.238 505.638 802 507C801.731 501.55 795.853 499.71 791 500L792 498L787 497L783 499L785 495L769 486L763 484L763 488L760 484L753 486L754 484L751 485L750 480L754 481L743 474L744 480L743 480C741.029 470.047 736.401 472.639 729.039 468.697C721.773 464.806 716.386 459.416 708 457L710 460L702 460L701 454C696.136 450.947 691.93 449.287 687 453L686 446L682 448L683 445C672.807 440.756 663.131 435.376 653 431C647.21 428.499 643.031 425.804 639 432C638.247 426.636 638.208 423.679 632 424C630.53 419.223 626.878 417.088 622 418L625 422C618.725 416.924 615.2 409.518 606 409C604.456 404.373 600.533 403.552 596 404L591 397L591 399L588 395L586 394L585 394L585 396L584 396L572 390L575 389L575 386C572.451 386 568.018 379.231 566 384L565 384L563 382L563 381C567.278 376.756 552.874 369.428 549 369L552 368L552 367L545 366L546 362L540 361L539 361L528 347C524.847 350.573 520.91 334.494 520 342L519 342C517.563 338.424 515.714 338.123 512 338L514 333L508 331C509.34 321.715 495.187 317.44 488 317L485 312L484 312L481 315C480.652 310.639 479.014 309.45 475 308C472.627 311.168 471.135 308.317 467.83 308.837C463.316 309.547 459.66 314.114 458 318M471 308L472 309L471 308M473 308L474 309L473 308z" />
    <path style="fill:#bab8b8; stroke:none;" d="M1069 308L1070 309L1069 308z" />
    <path style="fill:#555252; stroke:none;" d="M1167 308L1168 309L1167 308z" />
    <path style="fill:#828080; stroke:none;" d="M1068 309L1069 310L1068 309M778 310L778 314L779 314L778 310z" />
    <path style="fill:#555252; stroke:none;" d="M1067 310L1068 311L1067 310z" />
    <path style="fill:#bab8b8; stroke:none;" d="M1168 310L1169 311L1168 310z" />
    <path style="fill:#ffffff; stroke:none;" d="M474 312L474 313L477 313L477 312L474 312z" />
    <path style="fill:#555252; stroke:none;" d="M913 311L913 316L914 316L913 311z" />
    <path style="fill:#bab8b8; stroke:none;" d="M1067 311L1068 312L1067 311z" />
    <path style="fill:#555252; stroke:none;" d="M1169 311L1170 312L1169 311z" />
    <path style="fill:#828080; stroke:none;" d="M1066 312L1067 313L1066 312z" />
    <path style="fill:#555252; stroke:none;" d="M1065 313L1066 314L1065 313z" />
    <path style="fill:#828080; stroke:none;" d="M1170 313L1171 314L1170 313z" />
    <path style="fill:#555252; stroke:none;" d="M778 314L778 318L779 318L778 314z" />
    <path style="fill:#bab8b8; stroke:none;" d="M1065 314L1066 315L1065 314z" />
    <path style="fill:#ffffff; stroke:none;" d="M461 315L460 318L461 318L461 315M464.667 315.333L465.333 315.667L464.667 315.333z" />
    <path style="fill:#828080; stroke:none;" d="M1064 315L1065 316L1064 315z" />
    <path style="fill:#bab8b8; stroke:none;" d="M1171 315L1172 316L1171 315z" />
    <path style="fill:#555252; stroke:none;" d="M1063 316L1064 317L1063 316M1172 316L1173 317L1172 316z" />
    <path style="fill:#ffffff; stroke:none;" d="M464.333 317.667L464.667 318.333L464.333 317.667z" />
    <path style="fill:#bab8b8; stroke:none;" d="M1063 317L1064 318L1063 317M1172 317L1173 318L1172 317z" />
    <path style="fill:#555252; stroke:none;" d="M1062 318L1063 319L1062 318M1173 318L1174 319L1173 318z" />
    <path style="fill:#ffffff; stroke:none;" d="M494 319L494 320L497 320L494 319z" />
    <path style="fill:#bab8b8; stroke:none;" d="M1062 319L1063 320L1062 319M1173 319L1174 320L1173 319M912 320L912 325L913 325L912 320z" />
    <path style="fill:#828080; stroke:none;" d="M1061 320L1062 321L1061 320z" />
    <path style="fill:#555252; stroke:none;" d="M1174 320L1175 321L1174 320z" />
    <path style="fill:#ffffff; stroke:none;" d="M462 321L463 322L462 321z" />
    <path style="fill:#bab8b8; stroke:none;" d="M1174 321L1175 322L1174 321M779 322L779 325L780 325L779 322z" />
    <path style="fill:#828080; stroke:none;" d="M1060 322L1061 323L1060 322z" />
    <path style="fill:#555252; stroke:none;" d="M1175 322L1176 323L1175 322z" />
    <path style="fill:#bab8b8; stroke:none;" d="M1175 323L1176 324L1175 323z" />
    <path style="fill:#828080; stroke:none;" d="M1059 324L1060 325L1059 324z" />
    <path style="fill:#555252; stroke:none;" d="M1176 324L1177 325L1176 324z" />
    <path style="fill:#ffffff; stroke:none;" d="M500 325L500 326L503 327L500 325z" />
    <path style="fill:#828080; stroke:none;" d="M779 325L779 328L780 328L779 325M912 325L912 330L913 330L912 325z" />
    <path style="fill:#bab8b8; stroke:none;" d="M1176 325L1177 326L1176 325z" />
    <path style="fill:#231f21; stroke:none;" d="M443 326L444 327L443 326z" />
    <path style="fill:#828080; stroke:none;" d="M1058 326L1059 327L1058 326z" />
    <path style="fill:#555252; stroke:none;" d="M1177 326L1178 327L1177 326z" />
    <path style="fill:#828080; stroke:none;" d="M1177 327L1178 328L1177 327z" />
    <path style="fill:#555252; stroke:none;" d="M779.333 328.667L779.667 329.333L779.333 328.667z" />
    <path style="fill:#828080; stroke:none;" d="M1057 328L1058 329L1057 328z" />
    <path style="fill:#bab8b8; stroke:none;" d="M1057 329L1058 330L1057 329z" />
    <path style="fill:#828080; stroke:none;" d="M1178 329L1179 330L1178 329z" />
    <path style="fill:#555252; stroke:none;" d="M912 330L912 334L913 334L912 330M1056 330L1057 331L1056 330z" />
    <path style="fill:#bab8b8; stroke:none;" d="M1178 330L1179 331L1178 330M1056 331L1057 332L1056 331z" />
    <path style="fill:#555252; stroke:none;" d="M1179 331L1180 332L1179 331z" />
    <path style="fill:#ffffff; stroke:none;" d="M508 332L509 333L508 332z" />
    <path style="fill:#bab8b8; stroke:none;" d="M780 332L780 335L781 335L780 332M1179 332L1180 333L1179 332z" />
    <path style="fill:#828080; stroke:none;" d="M1055 333L1056 334L1055 333z" />
    <path style="fill:#bab8b8; stroke:none;" d="M1055 334L1056 335L1055 334z" />
    <path style="fill:#555252; stroke:none;" d="M1180 334L1181 335L1180 334z" />
    <path style="fill:#828080; stroke:none;" d="M780 335L781 336L780 335z" />
    <path style="fill:#555252; stroke:none;" d="M1054 335L1055 336L1054 335z" />
    <path style="fill:#bab8b8; stroke:none;" d="M1180 335L1181 336L1180 335z" />
    <path style="fill:#231f21; stroke:none;" d="M513.667 336.333L514.333 336.667L513.667 336.333z" />
    <path style="fill:#555252; stroke:none;" d="M780.333 336.667L780.667 337.333L780.333 336.667z" />
    <path style="fill:#828080; stroke:none;" d="M1054 336L1055 337L1054 336z" />
    <path style="fill:#bab8b8; stroke:none;" d="M1054 337L1055 338L1054 337z" />
    <path style="fill:#555252; stroke:none;" d="M1181 337L1182 338L1181 337z" />
    <path style="fill:#bab8b8; stroke:none;" d="M911 338L911 343L912 343L911 338z" />
    <path style="fill:#555252; stroke:none;" d="M1053 338L1054 339L1053 338z" />
    <path style="fill:#bab8b8; stroke:none;" d="M1181 338L1182 339L1181 338z" />
    <path style="fill:#828080; stroke:none;" d="M1053 339L1054 340L1053 339z" />
    <path style="fill:#bab8b8; stroke:none;" d="M781 340L782 341L781 340M1053 340L1054 341L1053 340z" />
    <path style="fill:#555252; stroke:none;" d="M1182 340L1183 341L1182 340z" />
    <path style="fill:#ffffff; stroke:none;" d="M517 341L518 342L517 341z" />
    <path style="fill:#828080; stroke:none;" d="M781.333 341.667L781.667 342.333L781.333 341.667M1182 341L1183 342L1182 341z" />
    <path style="fill:#555252; stroke:none;" d="M1052 342L1053 343L1052 342z" />
    <path style="fill:#bab8b8; stroke:none;" d="M1182 342L1183 343L1182 342z" />
    <path style="fill:#555252; stroke:none;" d="M781 343L782 344L781 343z" />
    <path style="fill:#828080; stroke:none;" d="M911 343L911 347L912 347L911 343M1052 343L1053 344L1052 343z" />
    <path style="fill:#bab8b8; stroke:none;" d="M1052.33 344.667L1052.67 345.333L1052.33 344.667z" />
    <path style="fill:#828080; stroke:none;" d="M1183 344L1184 345L1183 344z" />
    <path style="fill:#bab8b8; stroke:none;" d="M782.333 345.667L782.667 346.333L782.333 345.667M1183 345L1184 346L1183 345z" />
    <path style="fill:#828080; stroke:none;" d="M782 347L783 348L782 347z" />
    <path style="fill:#555252; stroke:none;" d="M911 347L911 352L912 352L911 347M1184 347L1185 348L1184 347M782 348L783 349L782 348M1051 348L1052 349L1051 348z" />
    <path style="fill:#828080; stroke:none;" d="M1184 348L1185 349L1184 348M1051.33 349.667L1051.67 350.333L1051.33 349.667z" />
    <path style="fill:#bab8b8; stroke:none;" d="M1184.33 349.667L1184.67 350.333L1184.33 349.667M783.333 350.667L783.667 351.333L783.333 350.667M1051 351L1051 354L1052 354L1051 351z" />
    <path style="fill:#828080; stroke:none;" d="M783 352L784 353L783 352z" />
    <path style="fill:#555252; stroke:none;" d="M1185 352L1186 353L1185 352M783 353L784 354L783 353z" />
    <path style="fill:#828080; stroke:none;" d="M1185 353L1186 354L1185 353z" />
    <path style="fill:#bab8b8; stroke:none;" d="M1185 354L1186 355L1185 354M784 355L785 356L784 355z" />
    <path style="fill:#828080; stroke:none;" d="M784 356L785 357L784 356z" />
    <path style="fill:#bab8b8; stroke:none;" d="M910 356L910 360L911 360L910 356z" />
    <path style="fill:#555252; stroke:none;" d="M1050 356L1050 359L1051 359L1050 356M784 357L785 358L784 357M1186 357L1187 358L1186 357z" />
    <path style="fill:#231f21; stroke:none;" d="M405 358L406 359L405 358z" />
    <path style="fill:#828080; stroke:none;" d="M1186 358L1187 359L1186 358z" />
    <path style="fill:#231f21; stroke:none;" d="M402 359L403 360L402 359z" />
    <path style="fill:#bab8b8; stroke:none;" d="M785 359L786 360L785 359z" />
    <path style="fill:#828080; stroke:none;" d="M1050 359L1050 362L1051 362L1050 359z" />
    <path style="fill:#bab8b8; stroke:none;" d="M1186.33 359.667L1186.67 360.333L1186.33 359.667z" />
    <path style="fill:#828080; stroke:none;" d="M785 360L786 361L785 360M910 360L910 364L911 364L910 360z" />
    <path style="fill:#231f21; stroke:none;" d="M397 361L398 362L397 361z" />
    <path style="fill:#555252; stroke:none;" d="M785 361L786 362L785 361z" />
    <path style="fill:#bab8b8; stroke:none;" d="M1050 362L1050 366L1051 366L1050 362z" />
    <path style="fill:#555252; stroke:none;" d="M1187.33 362.667L1187.67 363.333L1187.33 362.667z" />
    <path style="fill:#bab8b8; stroke:none;" d="M786 363L787 364L786 363z" />
    <path style="fill:#231f21; stroke:none;" d="M547 364L548 365L547 364z" />
    <path style="fill:#555252; stroke:none;" d="M786 364L787 365L786 364z" />
    <path style="fill:#bab8b8; stroke:none;" d="M837.667 364.333L838.333 364.667L837.667 364.333z" />
    <path style="fill:#828080; stroke:none;" d="M839 364L839 365L845 365L839 364z" />
    <path style="fill:#bab8b8; stroke:none;" d="M845 364L845 365L848 365L845 364z" />
    <path style="fill:#555252; stroke:none;" d="M910 364L910 367L911 367L910 364z" />
    <path style="fill:#828080; stroke:none;" d="M1187.33 364.667L1187.67 365.333L1187.33 364.667z" />
    <path style="fill:#bab8b8; stroke:none;" d="M832 365L833 366L832 365z" />
    <path style="fill:#828080; stroke:none;" d="M833 365L834 366L833 365z" />
    <path style="fill:#555252; stroke:none;" d="M834 365L835 366L834 365M849 365L850 366L849 365z" />
    <path style="fill:#828080; stroke:none;" d="M850 365L851 366L850 365z" />
    <path style="fill:#bab8b8; stroke:none;" d="M851 365L852 366L851 365M787 366L788 367L787 366M829 366L830 367L829 366z" />
    <path style="fill:#555252; stroke:none;" d="M830 366L831 367L830 366M853 366L854 367L853 366z" />
    <path style="fill:#bab8b8; stroke:none;" d="M854 366L855 367L854 366M1187.33 366.667L1187.67 367.333L1187.33 366.667z" />
    <path style="fill:#828080; stroke:none;" d="M787 367L788 368L787 367M827 367L828 368L827 367M856 367L857 368L856 367z" />
    <path style="fill:#555252; stroke:none;" d="M787 368L788 369L787 368z" />
    <path style="fill:#828080; stroke:none;" d="M825 368L826 369L825 368M858 368L859 369L858 368z" />
    <path style="fill:#bab8b8; stroke:none;" d="M788 369L789 370L788 369z" />
    <path style="fill:#828080; stroke:none;" d="M823 369L824 370L823 369M860 369L861 370L860 369z" />
    <path style="fill:#555252; stroke:none;" d="M1049 369L1049 374L1050 374L1049 369z" />
    <path style="fill:#ffffff; stroke:none;" d="M552 370L553 371L552 370z" />
    <path style="fill:#828080; stroke:none;" d="M788 370L789 371L788 370z" />
    <path style="fill:#bab8b8; stroke:none;" d="M821 370L822 371L821 370z" />
    <path style="fill:#555252; stroke:none;" d="M822 370L823 371L822 370z" />
    <path style="fill:#bab8b8; stroke:none;" d="M862 370L863 371L862 370z" />
    <path style="fill:#555252; stroke:none;" d="M1188.33 370.667L1188.67 371.333L1188.33 370.667M788 371L789 372L788 371z" />
    <path style="fill:#828080; stroke:none;" d="M820 371L821 372L820 371z" />
    <path style="fill:#555252; stroke:none;" d="M863 371L864 372L863 371z" />
    <path style="fill:#bab8b8; stroke:none;" d="M909 371L909 374L910 374L909 371z" />
    <path style="fill:#ffffff; stroke:none;" d="M550 372L551 373L550 372z" />
    <path style="fill:#555252; stroke:none;" d="M819 372L820 373L819 372M864 372L865 373L864 372z" />
    <path style="fill:#bab8b8; stroke:none;" d="M865 372L866 373L865 372z" />
    <path style="fill:#828080; stroke:none;" d="M1188.33 372.667L1188.67 373.333L1188.33 372.667z" />
    <path style="fill:#bab8b8; stroke:none;" d="M789 373L790 374L789 373M817 373L818 374L817 373M866 373L867 374L866 373z" />
    <path style="fill:#ffffff; stroke:none;" d="M548 374L548 375L551 375L548 374z" />
    <path style="fill:#555252; stroke:none;" d="M789 374L790 375L789 374z" />
    <path style="fill:#bab8b8; stroke:none;" d="M816 374L817 375L816 374M867 374L868 375L867 374z" />
    <path style="fill:#828080; stroke:none;" d="M909 374L909 377L910 377L909 374M1049 374L1049 378L1050 378L1049 374z" />
    <path style="fill:#bab8b8; stroke:none;" d="M1188 374L1188 377L1189 377L1188 374M815 375L816 376L815 375M868 375L869 376L868 375z" />
    <path style="fill:#828080; stroke:none;" d="M790 376L791 377L790 376z" />
    <path style="fill:#bab8b8; stroke:none;" d="M814 376L815 377L814 376M869 376L870 377L869 376z" />
    <path style="fill:#555252; stroke:none;" d="M790 377L791 378L790 377z" />
    <path style="fill:#bab8b8; stroke:none;" d="M813 377L814 378L813 377M870 377L871 378L870 377z" />
    <path style="fill:#555252; stroke:none;" d="M909.333 377.667L909.667 378.333L909.333 377.667z" />
    <path style="fill:#bab8b8; stroke:none;" d="M791 378L792 379L791 378M871 378L872 379L871 378M1049 378L1049 383L1050 383L1049 378z" />
    <path style="fill:#ffffff; stroke:none;" d="M560 379L557 382L560 379z" />
    <path style="fill:#828080; stroke:none;" d="M791 379L792 380L791 379z" />
    <path style="fill:#555252; stroke:none;" d="M812 379L813 380L812 379z" />
    <path style="fill:#828080; stroke:none;" d="M811 380L812 381L811 380z" />
    <path style="fill:#555252; stroke:none;" d="M872 380L873 381L872 380z" />
    <path style="fill:#bab8b8; stroke:none;" d="M792 381L793 382L792 381M810 381L811 382L810 381z" />
    <path style="fill:#828080; stroke:none;" d="M873 381L874 382L873 381z" />
    <path style="fill:#555252; stroke:none;" d="M1189 381L1189 400L1190 400L1189 381M792 382L793 383L792 382z" />
    <path style="fill:#bab8b8; stroke:none;" d="M874 382L875 383L874 382M908.333 382.667L908.667 383.333L908.333 382.667z" />
    <path style="fill:#555252; stroke:none;" d="M809 383L810 384L809 383M874 383L875 384L874 383z" />
    <path style="fill:#828080; stroke:none;" d="M793 384L794 385L793 384z" />
    <path style="fill:#bab8b8; stroke:none;" d="M808 384L809 385L808 384M875 384L876 385L875 384z" />
    <path style="fill:#828080; stroke:none;" d="M908.333 384.667L908.667 385.333L908.333 384.667z" />
    <path style="fill:#555252; stroke:none;" d="M793 385L794 386L793 385M808 385L809 386L808 385z" />
    <path style="fill:#bab8b8; stroke:none;" d="M794 386L795 387L794 386M807 386L808 387L807 386z" />
    <path style="fill:#828080; stroke:none;" d="M876 386L877 387L876 386z" />
    <path style="fill:#555252; stroke:none;" d="M908.333 386.667L908.667 387.333L908.333 386.667M794 387L795 388L794 387M807 387L808 388L807 387z" />
    <path style="fill:#bab8b8; stroke:none;" d="M806 388L807 389L806 388z" />
    <path style="fill:#828080; stroke:none;" d="M877 388L878 389L877 388z" />
    <path style="fill:#555252; stroke:none;" d="M1048 388L1048 394L1049 394L1048 388z" />
    <path style="fill:#ffffff; stroke:none;" d="M571 389L572 390L571 389z" />
    <path style="fill:#828080; stroke:none;" d="M795 389L796 390L795 389z" />
    <path style="fill:#555252; stroke:none;" d="M806 389L807 390L806 389M877 389L878 390L877 389z" />
    <path style="fill:#bab8b8; stroke:none;" d="M878 390L879 391L878 390M907.333 390.667L907.667 391.333L907.333 390.667M796 391L797 392L796 391z" />
    <path style="fill:#828080; stroke:none;" d="M805 391L806 392L805 391z" />
    <path style="fill:#555252; stroke:none;" d="M878 391L879 392L878 391z" />
    <path style="fill:#ffffff; stroke:none;" d="M572 392L573 393L572 392z" />
    <path style="fill:#555252; stroke:none;" d="M796 392L797 393L796 392z" />
    <path style="fill:#828080; stroke:none;" d="M907 392L908 393L907 392z" />
    <path style="fill:#bab8b8; stroke:none;" d="M797 393L798 394L797 393M804 393L805 394L804 393M879 393L880 394L879 393z" />
    <path style="fill:#555252; stroke:none;" d="M907 393L908 394L907 393M797 394L798 395L797 394z" />
    <path style="fill:#828080; stroke:none;" d="M804 394L805 395L804 394z" />
    <path style="fill:#555252; stroke:none;" d="M879 394L880 395L879 394z" />
    <path style="fill:#828080; stroke:none;" d="M1048 394L1048 399L1049 399L1048 394z" />
    <path style="fill:#bab8b8; stroke:none;" d="M798 395L799 396L798 395z" />
    <path style="fill:#555252; stroke:none;" d="M804 395L805 396L804 395M798 396L799 397L798 396z" />
    <path style="fill:#bab8b8; stroke:none;" d="M880 396L881 397L880 396M906 396L907 397L906 396M799 397L800 398L799 397M803 397L804 398L803 397z" />
    <path style="fill:#828080; stroke:none;" d="M880 397L881 398L880 397M906 397L907 398L906 397M799 398L800 399L799 398M803 398L804 399L803 398z" />
    <path style="fill:#555252; stroke:none;" d="M880 398L881 399L880 398M906 398L907 399L906 398M803 399L804 400L803 399z" />
    <path style="fill:#bab8b8; stroke:none;" d="M1048 399L1048 404L1049 404L1048 399z" />
    <path style="fill:#ffffff; stroke:none;" d="M358 400L359 401L358 400z" />
    <path style="fill:#828080; stroke:none;" d="M800 400L801 401L800 400z" />
    <path style="fill:#bab8b8; stroke:none;" d="M881.333 401.667L881.667 402.333L881.333 401.667M905 401L906 402L905 401z" />
    <path style="fill:#555252; stroke:none;" d="M801 402L802 403L801 402z" />
    <path style="fill:#bab8b8; stroke:none;" d="M802.333 402.667L802.667 403.333L802.333 402.667z" />
    <path style="fill:#828080; stroke:none;" d="M905 402L906 403L905 402M881.333 403.667L881.667 404.333L881.333 403.667z" />
    <path style="fill:#555252; stroke:none;" d="M905 403L906 404L905 403M802 404L803 405L802 404z" />
    <path style="fill:#bab8b8; stroke:none;" d="M1188 404L1188 407L1189 407L1188 404z" />
    <path style="fill:#ffffff; stroke:none;" d="M602 405L603 406L602 405z" />
    <path style="fill:#555252; stroke:none;" d="M881 405L881 411L882 411L881 405z" />
    <path style="fill:#bab8b8; stroke:none;" d="M904 405L905 406L904 405z" />
    <path style="fill:#ffffff; stroke:none;" d="M361 409L364 406L361 409z" />
    <path style="fill:#555252; stroke:none;" d="M904 406L905 407L904 406z" />
    <path style="fill:#828080; stroke:none;" d="M1188 407L1188 410L1189 410L1188 407z" />
    <path style="fill:#bab8b8; stroke:none;" d="M903 408L904 409L903 408z" />
    <path style="fill:#828080; stroke:none;" d="M903 409L904 410L903 409z" />
    <path style="fill:#555252; stroke:none;" d="M1047 410L1047 416L1048 416L1047 410M1188.33 410.667L1188.67 411.333L1188.33 410.667z" />
    <path style="fill:#ffffff; stroke:none;" d="M361 411L362 412L361 411z" />
    <path style="fill:#828080; stroke:none;" d="M881 411L881 414L882 414L881 411z" />
    <path style="fill:#bab8b8; stroke:none;" d="M902 411L903 412L902 411z" />
    <path style="fill:#555252; stroke:none;" d="M902 412L903 413L902 412z" />
    <path style="fill:#bab8b8; stroke:none;" d="M881.333 414.667L881.667 415.333L881.333 414.667z" />
    <path style="fill:#828080; stroke:none;" d="M901 414L902 415L901 414z" />
    <path style="fill:#bab8b8; stroke:none;" d="M1187.33 415.667L1187.67 416.333L1187.33 415.667M900 416L901 417L900 416z" />
    <path style="fill:#828080; stroke:none;" d="M1047 416L1047 424L1048 424L1047 416z" />
    <path style="fill:#555252; stroke:none;" d="M880 417L881 418L880 417M900 417L901 418L900 417z" />
    <path style="fill:#828080; stroke:none;" d="M1187.33 417.667L1187.67 418.333L1187.33 417.667M880 418L881 419L880 418z" />
    <path style="fill:#bab8b8; stroke:none;" d="M899 418L900 419L899 418M880 419L881 420L880 419z" />
    <path style="fill:#555252; stroke:none;" d="M899 419L900 420L899 419M1187.33 419.667L1187.67 420.333L1187.33 419.667z" />
    <path style="fill:#ffffff; stroke:none;" d="M626.333 420.667L626.667 421.333L626.333 420.667z" />
    <path style="fill:#bab8b8; stroke:none;" d="M898 420L899 421L898 420z" />
    <path style="fill:#555252; stroke:none;" d="M879 421L880 422L879 421M898 421L899 422L898 421z" />
    <path style="fill:#828080; stroke:none;" d="M879 422L880 423L879 422z" />
    <path style="fill:#bab8b8; stroke:none;" d="M897 422L898 423L897 422M879 423L880 424L879 423M1186.33 423.667L1186.67 424.333L1186.33 423.667z" />
    <path style="fill:#555252; stroke:none;" d="M878 424L879 425L878 424z" />
    <path style="fill:#828080; stroke:none;" d="M896 424L897 425L896 424z" />
    <path style="fill:#bab8b8; stroke:none;" d="M1047 424L1047 443L1048 443L1047 424z" />
    <path style="fill:#ffffff; stroke:none;" d="M633 425L634 426L633 425z" />
    <path style="fill:#828080; stroke:none;" d="M878 425L879 426L878 425M1186.33 425.667L1186.67 426.333L1186.33 425.667z" />
    <path style="fill:#ffffff; stroke:none;" d="M636 426L637 427L636 426z" />
    <path style="fill:#555252; stroke:none;" d="M895 426L896 427L895 426M877 427L878 428L877 427z" />
    <path style="fill:#bab8b8; stroke:none;" d="M894 427L895 428L894 427z" />
    <path style="fill:#555252; stroke:none;" d="M1186.33 427.667L1186.67 428.333L1186.33 427.667z" />
    <path style="fill:#ffffff; stroke:none;" d="M636.333 428.667L636.667 429.333L636.333 428.667z" />
    <path style="fill:#bab8b8; stroke:none;" d="M877 428L878 429L877 428z" />
    <path style="fill:#555252; stroke:none;" d="M876 429L877 430L876 429M893 429L894 430L893 429z" />
    <path style="fill:#bab8b8; stroke:none;" d="M876 430L877 431L876 430M892 430L893 431L892 430M1185 430L1185 433L1186 433L1185 430z" />
    <path style="fill:#555252; stroke:none;" d="M875 431L876 432L875 431M891 432L892 433L891 432z" />
    <path style="fill:#ffffff; stroke:none;" d="M652 433L652 434L655 434L652 433z" />
    <path style="fill:#828080; stroke:none;" d="M874 433L875 434L874 433M890 433L891 434L890 433M1185 433L1186 434L1185 433z" />
    <path style="fill:#ffffff; stroke:none;" d="M637 434L638 435L637 434z" />
    <path style="fill:#555252; stroke:none;" d="M873 434L874 435L873 434z" />
    <path style="fill:#bab8b8; stroke:none;" d="M889 434L890 435L889 434z" />
    <path style="fill:#555252; stroke:none;" d="M1185.33 434.667L1185.67 435.333L1185.33 434.667z" />
    <path style="fill:#bab8b8; stroke:none;" d="M873 435L874 436L873 435M888 435L889 436L888 435M872 436L873 437L872 436z" />
    <path style="fill:#ffffff; stroke:none;" d="M377 437L378 438L377 437z" />
    <path style="fill:#828080; stroke:none;" d="M871 437L872 438L871 437z" />
    <path style="fill:#555252; stroke:none;" d="M887 437L888 438L887 437M870 438L871 439L870 438M886 438L887 439L886 438z" />
    <path style="fill:#bab8b8; stroke:none;" d="M1184.33 438.667L1184.67 439.333L1184.33 438.667z" />
    <path style="fill:#555252; stroke:none;" d="M869 439L870 440L869 439M885 439L886 440L885 439M868 440L869 441L868 440M884 440L885 441L884 440z" />
    <path style="fill:#828080; stroke:none;" d="M1184 440L1185 441L1184 440z" />
    <path style="fill:#ffffff; stroke:none;" d="M667 441L668 442L667 441z" />
    <path style="fill:#555252; stroke:none;" d="M867 441L868 442L867 441M883 441L884 442L883 441M1184.33 441.667L1184.67 442.333L1184.33 441.667M866 442L867 443L866 442z" />
    <path style="fill:#bab8b8; stroke:none;" d="M881 442L882 443L881 442z" />
    <path style="fill:#828080; stroke:none;" d="M865 443L866 444L865 443z" />
    <path style="fill:#bab8b8; stroke:none;" d="M880 443L881 444L880 443z" />
    <path style="fill:#828080; stroke:none;" d="M1047 443L1047 449L1048 449L1047 443z" />
    <path style="fill:#bab8b8; stroke:none;" d="M864 444L865 445L864 444z" />
    <path style="fill:#555252; stroke:none;" d="M879 444L880 445L879 444z" />
    <path style="fill:#bab8b8; stroke:none;" d="M1183.33 444.667L1183.67 445.333L1183.33 444.667z" />
    <path style="fill:#555252; stroke:none;" d="M862 445L863 446L862 445z" />
    <path style="fill:#bab8b8; stroke:none;" d="M863 445L864 446L863 445M877 445L878 446L877 445z" />
    <path style="fill:#828080; stroke:none;" d="M861 446L862 447L861 446z" />
    <path style="fill:#bab8b8; stroke:none;" d="M875 446L876 447L875 446z" />
    <path style="fill:#555252; stroke:none;" d="M876 446L877 447L876 446z" />
    <path style="fill:#828080; stroke:none;" d="M1183 446L1184 447L1183 446M859 447L860 448L859 447z" />
    <path style="fill:#bab8b8; stroke:none;" d="M873 447L874 448L873 447z" />
    <path style="fill:#555252; stroke:none;" d="M874 447L875 448L874 447M1183 447L1184 448L1183 447z" />
    <path style="fill:#828080; stroke:none;" d="M857 448L858 449L857 448z" />
    <path style="fill:#bab8b8; stroke:none;" d="M870 448L871 449L870 448z" />
    <path style="fill:#828080; stroke:none;" d="M871 448L872 449L871 448z" />
    <path style="fill:#555252; stroke:none;" d="M872 448L873 449L872 448M854 449L853 451L855 451L854 449z" />
    <path style="fill:#828080; stroke:none;" d="M855 449L863 451L863 450L855 449z" />
    <path style="fill:#bab8b8; stroke:none;" d="M866.667 449.333L867.333 449.667L866.667 449.333z" />
    <path style="fill:#828080; stroke:none;" d="M868 449L869 450L868 449z" />
    <path style="fill:#555252; stroke:none;" d="M869 449L870 450L869 449M1047 449L1047 453L1048 453L1047 449z" />
    <path style="fill:#ffffff; stroke:none;" d="M387 452L391 451L387 452z" />
    <path style="fill:#555252; stroke:none;" d="M863.667 450.333L864.333 450.667L863.667 450.333z" />
    <path style="fill:#bab8b8; stroke:none;" d="M1182.33 450.667L1182.67 451.333L1182.33 450.667z" />
    <path style="fill:#828080; stroke:none;" d="M1182 452L1183 453L1182 452z" />
    <path style="fill:#ffffff; stroke:none;" d="M697 453L697 455L699 455L697 453z" />
    <path style="fill:#555252; stroke:none;" d="M1182 453L1183 454L1182 453z" />
    <path style="fill:#231f21; stroke:none;" d="M702 454L703 455L702 454z" />
    <path style="fill:#bab8b8; stroke:none;" d="M1181.33 455.667L1181.67 456.333L1181.33 455.667z" />
    <path style="fill:#231f21; stroke:none;" d="M705 457L706 458L705 457z" />
    <path style="fill:#bab8b8; stroke:none;" d="M1048 457L1048 460L1049 460L1048 457z" />
    <path style="fill:#828080; stroke:none;" d="M1181 457L1182 458L1181 457z" />
    <path style="fill:#555252; stroke:none;" d="M1181 458L1182 459L1181 458z" />
    <path style="fill:#828080; stroke:none;" d="M1048.33 460.667L1048.67 461.333L1048.33 460.667z" />
    <path style="fill:#bab8b8; stroke:none;" d="M1180.33 460.667L1180.67 461.333L1180.33 460.667z" />
    <path style="fill:#ffffff; stroke:none;" d="M707 461L709 463L709 461L707 461M716 462L716 464L718 464L716 462z" />
    <path style="fill:#555252; stroke:none;" d="M1048 462L1048 465L1049 465L1048 462z" />
    <path style="fill:#828080; stroke:none;" d="M1180 462L1181 463L1180 462z" />
    <path style="fill:#555252; stroke:none;" d="M1180 463L1181 464L1180 463z" />
    <path style="fill:#ffffff; stroke:none;" d="M715 465L716 466L715 465z" />
    <path style="fill:#231f21; stroke:none;" d="M726 465L727 466L726 465z" />
    <path style="fill:#bab8b8; stroke:none;" d="M1179 465L1180 466L1179 465z" />
    <path style="fill:#828080; stroke:none;" d="M1179 466L1180 467L1179 466z" />
    <path style="fill:#bab8b8; stroke:none;" d="M1049 467L1049 470L1050 470L1049 467z" />
    <path style="fill:#555252; stroke:none;" d="M1179 467L1180 468L1179 467z" />
    <path style="fill:#828080; stroke:none;" d="M1049 470L1050 471L1049 470z" />
    <path style="fill:#bab8b8; stroke:none;" d="M1178 470L1179 471L1178 470z" />
    <path style="fill:#555252; stroke:none;" d="M1049.33 471.667L1049.67 472.333L1049.33 471.667z" />
    <path style="fill:#828080; stroke:none;" d="M1178 471L1179 472L1178 471z" />
    <path style="fill:#555252; stroke:none;" d="M1178 472L1179 473L1178 472z" />
    <path style="fill:#bab8b8; stroke:none;" d="M1177 474L1178 475L1177 474M1050.33 475.667L1050.67 476.333L1050.33 475.667z" />
    <path style="fill:#828080; stroke:none;" d="M1177 475L1178 476L1177 475z" />
    <path style="fill:#555252; stroke:none;" d="M1177 476L1178 477L1177 476z" />
    <path style="fill:#828080; stroke:none;" d="M1050.33 477.667L1050.67 478.333L1050.33 477.667z" />
    <path style="fill:#bab8b8; stroke:none;" d="M1176 478L1177 479L1176 478z" />
    <path style="fill:#555252; stroke:none;" d="M1050 479L1051 480L1050 479z" />
    <path style="fill:#828080; stroke:none;" d="M1176 479L1177 480L1176 479z" />
    <path style="fill:#231f21; stroke:none;" d="M755 480L758 483L755 480z" />
    <path style="fill:#555252; stroke:none;" d="M1176 480L1177 481L1176 480z" />
    <path style="fill:#bab8b8; stroke:none;" d="M1051.33 482.667L1051.67 483.333L1051.33 482.667M1175 482L1176 483L1175 482z" />
    <path style="fill:#828080; stroke:none;" d="M1175 483L1176 484L1175 483z" />
    <path style="fill:#231f21; stroke:none;" d="M418.333 484.667L418.667 485.333L418.333 484.667z" />
    <path style="fill:#828080; stroke:none;" d="M1051 484L1052 485L1051 484z" />
    <path style="fill:#555252; stroke:none;" d="M1175 484L1176 485L1175 484M1051 485L1052 486L1051 485z" />
    <path style="fill:#bab8b8; stroke:none;" d="M1174 486L1175 487L1174 486z" />
    <path style="fill:#828080; stroke:none;" d="M1174 487L1175 488L1174 487z" />
    <path style="fill:#ffffff; stroke:none;" d="M426 488L427 489L426 488z" />
    <path style="fill:#bab8b8; stroke:none;" d="M1052 488L1053 489L1052 488z" />
    <path style="fill:#555252; stroke:none;" d="M1174 488L1175 489L1174 488z" />
    <path style="fill:#828080; stroke:none;" d="M1052 489L1053 490L1052 489z" />
    <path style="fill:#555252; stroke:none;" d="M1052.33 490.667L1052.67 491.333L1052.33 490.667z" />
    <path style="fill:#bab8b8; stroke:none;" d="M1173 490L1174 491L1173 490z" />
    <path style="fill:#555252; stroke:none;" d="M1173 491L1174 492L1173 491z" />
    <path style="fill:#bab8b8; stroke:none;" d="M1053 493L1054 494L1053 493M1092 493L1092 494L1100 494L1092 493M1172 493L1173 494L1172 493z" />
    <path style="fill:#ffffff; stroke:none;" d="M435.667 494.333L436.333 494.667L435.667 494.333z" />
    <path style="fill:#828080; stroke:none;" d="M1053 494L1054 495L1053 494z" />
    <path style="fill:#bab8b8; stroke:none;" d="M1087 494L1088 495L1087 494z" />
    <path style="fill:#828080; stroke:none;" d="M1088 494L1089 495L1088 494z" />
    <path style="fill:#555252; stroke:none;" d="M1089 494L1090 495L1089 494M1102 494L1103 495L1102 494z" />
    <path style="fill:#828080; stroke:none;" d="M1103 494L1104 495L1103 494z" />
    <path style="fill:#bab8b8; stroke:none;" d="M1104 494L1105 495L1104 494z" />
    <path style="fill:#828080; stroke:none;" d="M1172 494L1173 495L1172 494z" />
    <path style="fill:#555252; stroke:none;" d="M1053 495L1054 496L1053 495z" />
    <path style="fill:#bab8b8; stroke:none;" d="M1084 495L1085 496L1084 495z" />
    <path style="fill:#555252; stroke:none;" d="M1085 495L1086 496L1085 495M1106 495L1107 496L1106 495z" />
    <path style="fill:#828080; stroke:none;" d="M1107 495L1108 496L1107 495z" />
    <path style="fill:#bab8b8; stroke:none;" d="M1108 495L1109 496L1108 495z" />
    <path style="fill:#555252; stroke:none;" d="M1172 495L1173 496L1172 495z" />
    <path style="fill:#828080; stroke:none;" d="M1082 496L1083 497L1082 496z" />
    <path style="fill:#555252; stroke:none;" d="M1109 496L1110 497L1109 496z" />
    <path style="fill:#bab8b8; stroke:none;" d="M1110 496L1111 497L1110 496z" />
    <path style="fill:#828080; stroke:none;" d="M1080 497L1081 498L1080 497z" />
    <path style="fill:#555252; stroke:none;" d="M1111 497L1112 498L1111 497z" />
    <path style="fill:#bab8b8; stroke:none;" d="M1112 497L1113 498L1112 497M1171 497L1172 498L1171 497M1054 498L1055 499L1054 498z" />
    <path style="fill:#828080; stroke:none;" d="M1078 498L1079 499L1078 498z" />
    <path style="fill:#555252; stroke:none;" d="M1113 498L1114 499L1113 498z" />
    <path style="fill:#bab8b8; stroke:none;" d="M1114 498L1115 499L1114 498z" />
    <path style="fill:#555252; stroke:none;" d="M1171 498L1172 499L1171 498z" />
    <path style="fill:#828080; stroke:none;" d="M1054 499L1055 500L1054 499z" />
    <path style="fill:#bab8b8; stroke:none;" d="M1076 499L1077 500L1076 499z" />
    <path style="fill:#555252; stroke:none;" d="M1115 499L1116 500L1115 499M1054 500L1055 501L1054 500M1075 500L1076 501L1075 500z" />
    <path style="fill:#bab8b8; stroke:none;" d="M1117 500L1118 501L1117 500M1170 500L1171 501L1170 500M1073 501L1074 502L1073 501z" />
    <path style="fill:#555252; stroke:none;" d="M1074 501L1075 502L1074 501z" />
    <path style="fill:#828080; stroke:none;" d="M1118 501L1119 502L1118 501M1170 501L1171 502L1170 501z" />
    <path style="fill:#bab8b8; stroke:none;" d="M1055 502L1056 503L1055 502M1072 502L1073 503L1072 502z" />
    <path style="fill:#555252; stroke:none;" d="M1119 502L1120 503L1119 502M1170 502L1171 503L1170 502z" />
    <path style="fill:#828080; stroke:none;" d="M1055 503L1056 504L1055 503z" />
    <path style="fill:#bab8b8; stroke:none;" d="M1071 503L1072 504L1071 503z" />
    <path style="fill:#555252; stroke:none;" d="M1120 503L1121 504L1120 503z" />
    <path style="fill:#bab8b8; stroke:none;" d="M1169 503L1170 504L1169 503z" />
    <path style="fill:#555252; stroke:none;" d="M1055 504L1056 505L1055 504z" />
    <path style="fill:#bab8b8; stroke:none;" d="M1070 504L1071 505L1070 504z" />
    <path style="fill:#555252; stroke:none;" d="M1121 504L1122 505L1121 504z" />
    <path style="fill:#828080; stroke:none;" d="M1169 504L1170 505L1169 504z" />
    <path style="fill:#bab8b8; stroke:none;" d="M1069 505L1070 506L1069 505z" />
    <path style="fill:#555252; stroke:none;" d="M1122 505L1123 506L1122 505M1169 505L1170 506L1169 505z" />
    <path style="fill:#bab8b8; stroke:none;" d="M1056 506L1057 507L1056 506M1068 506L1069 507L1068 506z" />
    <path style="fill:#555252; stroke:none;" d="M1123 506L1124 507L1123 506z" />
    <path style="fill:#828080; stroke:none;" d="M1056 507L1057 508L1056 507z" />
    <path style="fill:#bab8b8; stroke:none;" d="M1067 507L1068 508L1067 507z" />
    <path style="fill:#555252; stroke:none;" d="M1124 507L1125 508L1124 507z" />
    <path style="fill:#bab8b8; stroke:none;" d="M1168 507L1169 508L1168 507z" />
    <path style="fill:#555252; stroke:none;" d="M1056 508L1057 509L1056 508z" />
    <path style="fill:#828080; stroke:none;" d="M1125 508L1126 509L1125 508z" />
    <path style="fill:#555252; stroke:none;" d="M1168 508L1169 509L1168 508z" />
    <path style="fill:#ffffff; stroke:none;" d="M811 509L812 510L811 509z" />
    <path style="fill:#555252; stroke:none;" d="M1066 509L1067 510L1066 509z" />
    <path style="fill:#bab8b8; stroke:none;" d="M1126 509L1127 510L1126 509M1057 510L1058 511L1057 510z" />
    <path style="fill:#828080; stroke:none;" d="M1065 510L1066 511L1065 510z" />
    <path style="fill:#bab8b8; stroke:none;" d="M1167 510L1168 511L1167 510z" />
    <path style="fill:#828080; stroke:none;" d="M1057 511L1058 512L1057 511z" />
    <path style="fill:#bab8b8; stroke:none;" d="M1064 511L1065 512L1064 511z" />
    <path style="fill:#555252; stroke:none;" d="M1127 511L1128 512L1127 511M1167 511L1168 512L1167 511M1057 512L1058 513L1057 512M1064 512L1065 513L1064 512z" />
    <path style="fill:#bab8b8; stroke:none;" d="M1128 512L1129 513L1128 512z" />
    <path style="fill:#ffffff; stroke:none;" d="M465 513L466 514L465 513M817 513L818 514L817 513z" />
    <path style="fill:#bab8b8; stroke:none;" d="M1063 513L1064 514L1063 513z" />
    <path style="fill:#555252; stroke:none;" d="M1128 513L1129 514L1128 513z" />
    <path style="fill:#bab8b8; stroke:none;" d="M1166 513L1167 514L1166 513M1058 514L1059 515L1058 514z" />
    <path style="fill:#828080; stroke:none;" d="M1129 514L1130 515L1129 514z" />
    <path style="fill:#555252; stroke:none;" d="M1166 514L1167 515L1166 514z" />
    <path style="fill:#828080; stroke:none;" d="M1058 515L1059 516L1058 515M1062 515L1063 516L1062 515z" />
    <path style="fill:#ffffff; stroke:none;" d="M461 516L462 517L461 516z" />
    <path style="fill:#828080; stroke:none;" d="M1130 516L1131 517L1130 516z" />
    <path style="fill:#bab8b8; stroke:none;" d="M1165 516L1166 517L1165 516M1059 517L1060 518L1059 517z" />
    <path style="fill:#828080; stroke:none;" d="M1061 517L1062 518L1061 517z" />
    <path style="fill:#555252; stroke:none;" d="M1165 517L1166 518L1165 517z" />
    <path style="fill:#231f21; stroke:none;" d="M830 518L831 519L830 518z" />
    <path style="fill:#828080; stroke:none;" d="M1059 518L1060 519L1059 518M1131 518L1132 519L1131 518z" />
    <path style="fill:#555252; stroke:none;" d="M1059 519L1061 521L1059 519z" />
    <path style="fill:#bab8b8; stroke:none;" d="M1060 519L1061 520L1060 519M1164 519L1165 520L1164 519M1132 520L1133 521L1132 520z" />
    <path style="fill:#555252; stroke:none;" d="M1164 520L1165 521L1164 520z" />
    <path style="fill:#ffffff; stroke:none;" d="M833 521L834 522L833 521z" />
    <path style="fill:#555252; stroke:none;" d="M1132 521L1133 522L1132 521z" />
    <path style="fill:#ffffff; stroke:none;" d="M476 522L477 523L476 522z" />
    <path style="fill:#bab8b8; stroke:none;" d="M1163 522L1164 523L1163 522M1133 523L1134 524L1133 523z" />
    <path style="fill:#555252; stroke:none;" d="M1163 523L1164 524L1163 523M1133 524L1134 525L1133 524z" />
    <path style="fill:#bab8b8; stroke:none;" d="M1162 524L1163 525L1162 524z" />
    <path style="fill:#828080; stroke:none;" d="M1162 525L1163 526L1162 525z" />
    <path style="fill:#bab8b8; stroke:none;" d="M1134 526L1135 527L1134 526z" />
    <path style="fill:#555252; stroke:none;" d="M1162 526L1163 527L1162 526z" />
    <path style="fill:#828080; stroke:none;" d="M1134 527L1135 528L1134 527z" />
    <path style="fill:#bab8b8; stroke:none;" d="M1161 527L1162 528L1161 527z" />
    <path style="fill:#555252; stroke:none;" d="M1134 528L1135 529L1134 528M1161 528L1162 529L1161 528z" />
    <path style="fill:#231f21; stroke:none;" d="M853 530L854 531L853 530z" />
    <path style="fill:#bab8b8; stroke:none;" d="M1160 530L1161 531L1160 530M1135.33 531.667L1135.67 532.333L1135.33 531.667z" />
    <path style="fill:#555252; stroke:none;" d="M1160 531L1161 532L1160 531z" />
    <path style="fill:#bab8b8; stroke:none;" d="M1159 532L1160 533L1159 532z" />
    <path style="fill:#ffffff; stroke:none;" d="M855 533L856 534L855 533z" />
    <path style="fill:#828080; stroke:none;" d="M1135 533L1136 534L1135 533M1159 533L1160 534L1159 533z" />
    <path style="fill:#555252; stroke:none;" d="M1135 534L1135 545L1136 545L1135 534z" />
    <path style="fill:#ffffff; stroke:none;" d="M860.333 535.667L860.667 536.333L860.333 535.667z" />
    <path style="fill:#828080; stroke:none;" d="M1158 535L1159 536L1158 535z" />
    <path style="fill:#bab8b8; stroke:none;" d="M1157 537L1158 538L1157 537z" />
    <path style="fill:#555252; stroke:none;" d="M1157 538L1158 539L1157 538z" />
    <path style="fill:#bab8b8; stroke:none;" d="M1156 539L1157 540L1156 539z" />
    <path style="fill:#555252; stroke:none;" d="M1156 540L1157 541L1156 540z" />
    <path style="fill:#ffffff; stroke:none;" d="M504 541L505 542L504 541z" />
    <path style="fill:#bab8b8; stroke:none;" d="M1155 541L1156 542L1155 541z" />
    <path style="fill:#828080; stroke:none;" d="M1155 542L1156 543L1155 542z" />
    <path style="fill:#ffffff; stroke:none;" d="M862 543L863 544L862 543z" />
    <path style="fill:#828080; stroke:none;" d="M1154 544L1155 545L1154 544z" />
    <path style="fill:#ffffff; stroke:none;" d="M512 546L512 547L516 547L512 546M877.667 545.333L878.333 545.667L877.667 545.333z" />
    <path style="fill:#828080; stroke:none;" d="M1135 545L1136 546L1135 545z" />
    <path style="fill:#bab8b8; stroke:none;" d="M1153 545L1154 546L1153 545z" />
    <path style="fill:#ffffff; stroke:none;" d="M872.667 546.333L873.333 546.667L872.667 546.333M875 546L876 547L875 546z" />
    <path style="fill:#bab8b8; stroke:none;" d="M1135.33 546.667L1135.67 547.333L1135.33 546.667z" />
    <path style="fill:#555252; stroke:none;" d="M1153 546L1154 547L1153 546z" />
    <path style="fill:#bab8b8; stroke:none;" d="M1152 547L1153 548L1152 547z" />
    <path style="fill:#ffffff; stroke:none;" d="M872 548L873 549L872 548z" />
    <path style="fill:#555252; stroke:none;" d="M1152 548L1153 549L1152 548z" />
    <path style="fill:#bab8b8; stroke:none;" d="M1151 549L1152 550L1151 549z" />
    <path style="fill:#ffffff; stroke:none;" d="M525 550L525 553L526 553L525 550M527 550L527 553L530 552L530 551L527 550M881 550L883 553L883 550L881 550z" />
    <path style="fill:#555252; stroke:none;" d="M1134 550L1135 551L1134 550z" />
    <path style="fill:#828080; stroke:none;" d="M1134 551L1135 552L1134 551z" />
    <path style="fill:#555252; stroke:none;" d="M1150 551L1151 552L1150 551z" />
    <path style="fill:#bab8b8; stroke:none;" d="M1134 552L1135 553L1134 552M1149 552L1150 553L1149 552z" />
    <path style="fill:#231f21; stroke:none;" d="M521 553L522 554L521 553z" />
    <path style="fill:#555252; stroke:none;" d="M1133 554L1134 555L1133 554M1148 554L1149 555L1148 554z" />
    <path style="fill:#bab8b8; stroke:none;" d="M1133 555L1134 556L1133 555z" />
    <path style="fill:#828080; stroke:none;" d="M1147 555L1148 556L1147 555z" />
    <path style="fill:#ffffff; stroke:none;" d="M537.667 556.333L538.333 556.667L537.667 556.333M540 556L541 557L540 556M895 556L899 559L895 556z" />
    <path style="fill:#bab8b8; stroke:none;" d="M1146 556L1147 557L1146 556z" />
    <path style="fill:#555252; stroke:none;" d="M1132 557L1133 558L1132 557z" />
    <path style="fill:#bab8b8; stroke:none;" d="M1145 557L1146 558L1145 557M1132 558L1133 559L1132 558M1144 558L1145 559L1144 558z" />
    <path style="fill:#828080; stroke:none;" d="M1143 559L1144 560L1143 559z" />
    <path style="fill:#ffffff; stroke:none;" d="M547 560C547.662 563.151 549.338 563.15 550 560L547 560M902 560L902 561L907 561L902 560z" />
    <path style="fill:#828080; stroke:none;" d="M1131 560L1132 561L1131 560M1142 560L1143 561L1142 560z" />
    <path style="fill:#555252; stroke:none;" d="M1141 561L1142 562L1141 561z" />
    <path style="fill:#828080; stroke:none;" d="M1130 562L1131 563L1130 562z" />
    <path style="fill:#bab8b8; stroke:none;" d="M1139 562L1140 563L1139 562z" />
    <path style="fill:#555252; stroke:none;" d="M1140 562L1141 563L1140 562z" />
    <path style="fill:#bab8b8; stroke:none;" d="M1138 563L1139 564L1138 563z" />
    <path style="fill:#828080; stroke:none;" d="M1129 564L1130 565L1129 564M1137 564L1138 565L1137 564z" />
    <path style="fill:#555252; stroke:none;" d="M1128 565L1129 566L1128 565M1136 565L1137 566L1136 565z" />
    <path style="fill:#bab8b8; stroke:none;" d="M1128 566L1129 567L1128 566M1134 566L1135 567L1134 566z" />
    <path style="fill:#ffffff; stroke:none;" d="M563 567L564 568L563 567z" />
    <path style="fill:#555252; stroke:none;" d="M1127 567L1128 568L1127 567M1133 567L1134 568L1133 567z" />
    <path style="fill:#bab8b8; stroke:none;" d="M1131 568L1132 569L1131 568z" />
    <path style="fill:#ffffff; stroke:none;" d="M563 569L564 570L563 569z" />
    <path style="fill:#bab8b8; stroke:none;" d="M1126 569L1127 570L1126 569M1129 569L1130 570L1129 569z" />
    <path style="fill:#555252; stroke:none;" d="M1130 569L1131 570L1130 569z" />
    <path style="fill:#828080; stroke:none;" d="M1125 570L1126 571L1125 570z" />
    <path style="fill:#bab8b8; stroke:none;" d="M1127 570L1128 571L1127 570z" />
    <path style="fill:#555252; stroke:none;" d="M1128 570L1129 571L1128 570z" />
    <path style="fill:#ffffff; stroke:none;" d="M569 571L568 573L569 571z" />
    <path style="fill:#555252; stroke:none;" d="M1124 571L1125 572L1124 571z" />
    <path style="fill:#bab8b8; stroke:none;" d="M1125 571L1126 572L1125 571z" />
    <path style="fill:#555252; stroke:none;" d="M1126 571L1127 572L1126 571z" />
    <path style="fill:#ffffff; stroke:none;" d="M588 575L588 578L589 578L588 575M606 579L607 580L606 579M608 579L609 580L608 579M606 581L607 582L606 581M605 583L606 584L605 583M956.667 586.333L957.333 586.667L956.667 586.333M962.667 590.333L963.333 590.667L962.667 590.333M965 591L963 592L963 593L965 591M636.667 592.333L637.333 592.667L636.667 592.333M656 597L656 598L659 598L656 597M655 599L656 602L657 602L655 599M670.333 601.667L670.667 602.333L670.333 601.667M675 602L675 604L677 604L675 602z" />
    <path style="fill:#231f21; stroke:none;" d="M999.667 607.333L1000.33 607.667L999.667 607.333z" />
    <path style="fill:#ffffff; stroke:none;" d="M686 610L687 611L686 610M1012.33 614.667L1012.67 615.333L1012.33 614.667M1012 617L1011 620L1012 617M710 620L711 621L710 620M712 620L713 621L712 620M1022 624L1023 625L1022 624M733 626L734 627L733 626M1033 627L1034 628L1033 627M755 639L756 640L755 639M775 648L776 649L775 648M782 648L782 652L786 648L782 648M1073.67 649.333L1074.33 649.667L1073.67 649.333M1073.67 655.333L1074.33 655.667L1073.67 655.333z" />
    <path style="fill:#231f21; stroke:none;" d="M1105 664L1105 667L1106 667L1105 664z" />
    <path style="fill:#ffffff; stroke:none;" d="M840 673L841 674L840 673M840 675L841 676L840 675M846 680L848 682L848 680L846 680M1155 694L1156 695L1155 694M883 695L884 696L883 695M1165 695L1165 696L1168 697L1165 695M1165.33 697.667L1165.67 698.333L1165.33 697.667z" />
    <path style="fill:#231f21; stroke:none;" d="M1176 697L1177 698L1176 697z" />
    <path style="fill:#ffffff; stroke:none;" d="M1179 699L1180 700L1179 699M894 701L895 702L894 701M903 705L904 706L903 705z" />
    <path style="fill:#231f21; stroke:none;" d="M1210 711L1211 712L1210 711z" />
    <path style="fill:#ffffff; stroke:none;" d="M924 712L926 716L924 712M1199 712L1198 714L1200 714L1199 712M925.667 717.333L926.333 717.667L925.667 717.333M1231.67 722.333L1232.33 722.667L1231.67 722.333M1242 728L1243 729L1242 728M1252 736L1253 737L1252 736M968.333 737.667L968.667 738.333L968.333 737.667M976 739L977 740L976 739M979.667 742.333L980.333 742.667L979.667 742.333M991 748L992 749L991 748M1004 748L1005 749L1004 748M1267.67 749.333L1268.33 749.667L1267.67 749.333M1271 750L1272 751L1271 750M995 752L996 753L995 752M1270.67 752.333L1271.33 752.667L1270.67 752.333M1003 753L1004 754L1003 753M999 755L1001 757L1001 755L999 755M1033 767L1034 768L1033 767M1026 771L1027 772L1026 771z" />
    <path style="fill:#231f21; stroke:none;" d="M1031 775L1032 776L1031 775z" />
    <path style="fill:#ffffff; stroke:none;" d="M1065 794L1065 795L1068 795L1065 794M1067 796L1068 797L1067 796M1069 797L1070 798L1069 797M1083 805L1083 806L1089 808L1083 805z" />
    <path style="fill:#231f21; stroke:none;" d="M43 844C44.2568 853.325 48.0757 862.334 51.6034 871C52.8766 874.128 56.3351 879.284 54.6358 882.728C53.0727 885.897 49.3709 884.301 47 883.228C40.2837 880.191 33.2101 876.327 26 874.614C20.3834 873.28 16.5155 877.354 18.7431 882.957C21.4252 889.702 34.078 895.189 40 898.947C57.5514 910.084 79.98 920.707 94.8958 935.184C105.015 945.007 111.186 961.1 118.681 973C137.983 1003.64 156.366 1034.95 175 1066C181.618 1077.03 188.381 1087.97 195 1099C197.599 1103.33 200.234 1110.25 205.093 1112.44C212.143 1115.6 221.496 1114.46 229 1115.17C246.968 1116.88 265.04 1117.46 283 1119.17C329.875 1123.63 377.025 1126.67 424 1129.91C445.978 1131.42 469.347 1130.98 491 1135L493 1125C461.724 1125 430.189 1120.23 399 1118.09C361.365 1115.51 323.473 1113.64 286 1109.16C269.359 1107.16 252.687 1104.63 236 1103.07C229.307 1102.45 216.945 1103.09 211.39 1099.06C207.635 1096.34 205.655 1089.96 203.424 1086C197.095 1074.77 191.361 1063.21 185 1052C167.979 1022.02 152.095 991.326 135.691 961C128.365 947.456 118.187 933.459 112.932 919C110.006 910.95 123.666 896.861 127.532 890C136.248 874.534 135.953 851.946 134.05 835C133.539 830.446 133.874 820.978 130.4 817.604C125.69 813.028 119.941 819.449 119.214 824.004C117.128 837.063 121.626 850.092 118 863L116 863C113.903 856.699 111.089 850.513 109.668 844C108.661 839.383 108.128 834.643 107.2 830C106.426 826.13 106.254 820.355 103.436 817.333C100.376 814.052 94.1985 815.81 93.0316 820.058C90.5347 829.147 96.5468 846.731 98.3997 856C98.9807 858.906 102.037 867.089 97.7361 868.503C93.6887 869.833 91.4518 863.811 90.6451 861C88.9865 855.222 88.2459 825.097 76.3179 833.028C70.331 837.008 75.5828 858.803 76.4236 865C76.8814 868.374 77.9456 874.097 73.8673 875.824C68.8881 877.932 67.0664 868.928 65.6265 866C60.5304 855.636 56.453 835.538 43 844z" />
    <path style="fill:#ffffff; stroke:none;" d="M1105 815L1106 816L1105 815M1106 819L1107 820L1106 819z" />
    <path style="fill:#231f21; stroke:none;" d="M1678 871L1677 871C1672.27 858.04 1675.79 843.801 1671.61 831.015C1670.31 827.056 1663.66 822.223 1660.01 826.603C1656.58 830.72 1658 840.043 1658 845C1658 862.36 1660.21 884.324 1670.69 899C1675.08 905.132 1690.59 918.177 1687.93 926.089C1672.22 972.747 1650.15 1018.69 1630.85 1064C1625.91 1075.6 1621.09 1087.29 1616.4 1099C1614.46 1103.85 1612.71 1111.82 1608.58 1115.26C1604.05 1119.04 1594.62 1119.24 1589 1120.63C1572.39 1124.7 1555.62 1128.1 1539 1132.13C1470.51 1148.74 1399.39 1154.15 1331 1171L1334 1180C1402.78 1171.12 1471.88 1155.86 1540 1142.8C1557.95 1139.36 1575.98 1136.15 1594 1133.08C1600.85 1131.92 1611.99 1131.64 1617.58 1127.15C1621.65 1123.87 1624.01 1115.67 1626.22 1111C1632.5 1097.71 1638.88 1084.43 1644.86 1071C1656.56 1044.75 1669.7 1019.12 1681.69 993C1689.33 976.372 1695.8 955.781 1706.64 941.015C1711.3 934.663 1718.98 930.078 1725 925.081C1738.87 913.574 1752.95 902.285 1767 891.001C1771.81 887.136 1780.7 881.718 1777.4 874.152C1775.69 870.252 1771 871.705 1768 873.035C1763.14 875.191 1748.2 887.326 1743.32 884.183C1740.17 882.15 1741.81 877.781 1742.66 875C1745.06 867.134 1747.48 859.144 1748.75 851C1749.45 846.432 1748.07 840.569 1742.13 840.712C1739.01 840.787 1737.95 844.616 1737.05 847.001C1734.23 854.53 1731.22 862.314 1728.91 870C1728.06 872.841 1726.63 880.033 1722.13 878.654C1718.37 877.501 1718.27 870.147 1718.09 867C1717.44 855.394 1724.36 833.856 1707 836C1705.97 841.528 1705.15 847.377 1705.01 853C1704.88 858.588 1705.34 865.882 1702.54 870.941C1700.66 874.338 1696.54 875.459 1695.32 870.941C1691.56 857.067 1700.8 840.075 1697.64 826.058C1696.86 822.594 1692.44 820.575 1689.13 821.694C1684.56 823.237 1684.94 830.144 1684.42 834C1682.7 846.939 1682.81 858.506 1678 871M1304 826L1305 827L1304 826z" />
    <path style="fill:#ffffff; stroke:none;" d="M1122 827L1123 828L1122 827M1122 829L1123 830L1122 829M1138 841L1139 842L1138 841M1305 841L1306 844L1307 844L1308 841L1305 841M1157 849L1158 852L1159 852L1160 849L1157 849M1179.33 861.667L1179.67 862.333L1179.33 861.667M1307 867L1307 872L1308 872L1308 868L1313 866L1307 867z" />
    <path style="fill:#231f21; stroke:none;" d="M1186 870L1187 871L1186 870M1188 871L1189 872L1188 871z" />
    <path style="fill:#ffffff; stroke:none;" d="M1196.67 874.333L1197.33 874.667L1196.67 874.333M1199 899L1199 902L1200 902L1199 899M1201 900L1202 901L1201 900M1314.67 902.333L1315.33 902.667L1314.67 902.333M1202.33 909.667L1202.67 910.333L1202.33 909.667M1311 909L1312 910L1311 909M1201 915L1202 916L1201 915M1202 921L1203 922L1202 921M1193 933L1196 938L1197 938L1197 934L1193 933M1307.33 941.667L1307.67 942.333L1307.33 941.667M1190 946L1193 945L1190 946M1182.33 961.667L1182.67 962.333L1182.33 961.667M1306 962L1307 963L1306 962M1177 977L1178 978L1177 977M1300 977L1301 978L1300 977M1299 980L1299 984L1300 984L1299 980z" />
    <path style="fill:#231f21; stroke:none;" d="M1172 983L1173 984L1172 983z" />
    <path style="fill:#ffffff; stroke:none;" d="M1170 990L1173 992L1170 990M1294 999L1295 1000L1294 999z" />
    <path style="fill:#231f21; stroke:none;" d="M1295 1005L1295 1008L1296 1008L1295 1005z" />
    <path style="fill:#ffffff; stroke:none;" d="M1164 1007L1164 1009L1166 1007L1164 1007M1289 1013L1290 1014L1289 1013M1165 1019L1166 1020L1165 1019M1165 1022L1166 1023L1165 1022z" />
    <path style="fill:#231f21; stroke:none;" d="M1290 1024L1291 1025L1290 1024M1287.33 1036.67L1287.67 1037.33L1287.33 1036.67z" />
    <path style="fill:#ffffff; stroke:none;" d="M1157 1038L1158 1039L1157 1038M1151 1061L1152 1062L1151 1061M1151 1063L1151 1066L1152 1066L1151 1063M1148 1073L1149 1074L1148 1073z" />
    <path style="fill:#231f21; stroke:none;" d="M1145 1077L1146 1078L1145 1077z" />
    <path style="fill:#ffffff; stroke:none;" d="M1276 1077L1277 1078L1276 1077M1273 1095L1274 1096L1273 1095M1144 1106L1145 1107L1144 1106M1271 1132L1271 1134L1273 1134L1271 1132M1137.67 1144.33L1138.33 1144.67L1137.67 1144.33M1138 1146L1139 1147L1138 1146M1133 1151L1134 1152L1133 1151M1136 1152L1137 1153L1136 1152M1265 1162L1269 1163L1270 1163L1270 1159L1265 1162M1266.33 1181.67L1266.67 1182.33L1266.33 1181.67M1129 1183L1135 1186L1129 1183z" />
    <path style="fill:#231f21; stroke:none;" d="M1269 1185L1270 1186L1269 1185M1123 1195L1124 1196L1123 1195z" />
    <path style="fill:#ffffff; stroke:none;" d="M1123 1218L1124 1219L1123 1218M1121 1222L1122 1223L1121 1222M1121 1232L1121 1234L1123 1234L1121 1232M1120 1245L1121 1246L1120 1245M1261 1253L1259 1262C1263.16 1261.11 1263.19 1256.06 1261 1253M1264 1263L1265 1264L1264 1263M1262 1264L1263 1265L1262 1264M1111 1272L1112 1273L1111 1272M1260 1285L1261 1286L1260 1285M1255.67 1318.33L1256.33 1318.67L1255.67 1318.33M1105 1321L1106 1322L1105 1321M1102 1324L1102 1326L1105 1326L1105 1324L1102 1324z" />
    <path style="fill:#231f21; stroke:none;" d="M1086.67 1373.33L1087.33 1373.67L1086.67 1373.33M1253 1385L1254 1386L1253 1385M1250 1400L1251 1401L1250 1400z" />
    <path style="fill:#ffffff; stroke:none;" d="M1081 1407L1082 1408L1081 1407M1247.33 1423.67L1247.67 1424.33L1247.33 1423.67M1077.67 1428.33L1078.33 1428.67L1077.67 1428.33M1243 1454L1244 1455L1243 1454M1072 1459L1073 1460L1072 1459M1072.67 1462.33L1073.33 1462.67L1072.67 1462.33M1243.67 1472.33L1244.33 1472.67L1243.67 1472.33M1066 1477L1067 1478L1066 1477M1067 1483L1068 1484L1067 1483M1063.33 1493.67L1063.67 1494.33L1063.33 1493.67M334 1496L335 1497L334 1496M1065 1497L1066 1498L1065 1497M367 1505L367 1506L370 1506L367 1505M391 1511L392 1512L391 1511z" />
    <path style="fill:#231f21; stroke:none;" d="M402 1513L402 1514L405 1517L406 1513L402 1513M1241 1513L1242 1514L1241 1513M408 1514L409 1515L408 1514z" />
    <path style="fill:#ffffff; stroke:none;" d="M1060 1514L1060 1516L1062 1514L1060 1514z" />
    <path style="fill:#231f21; stroke:none;" d="M327 1524L328 1525L327 1524z" />
    <path style="fill:#ffffff; stroke:none;" d="M1238 1525L1239 1526L1238 1525M449 1529L445 1530L445 1531L449 1529M1054 1530L1055 1531L1054 1530M457 1531L460 1534L457 1531z" />
    <path style="fill:#231f21; stroke:none;" d="M468 1532L469 1533L468 1532M319 1542L320 1543L319 1542z" />
    <path style="fill:#ffffff; stroke:none;" d="M1235 1551L1236 1552L1235 1551M1231 1553L1232 1554L1231 1553M320 1555L321 1556L320 1555z" />
    <path style="fill:#231f21; stroke:none;" d="M1044 1558L1047 1556L1044 1558M1043.33 1561.67L1043.67 1562.33L1043.33 1561.67z" />
    <path style="fill:#ffffff; stroke:none;" d="M1046.33 1561.67L1046.67 1562.33L1046.33 1561.67M317 1569L318 1570L317 1569M317 1571L318 1572L317 1571M1225 1571L1226 1572L1225 1571z" />
    <path style="fill:#231f21; stroke:none;" d="M1038 1576L1039 1577L1038 1576z" />
    <path style="fill:#ffffff; stroke:none;" d="M318 1583L318 1585L320 1585L320 1583L318 1583M1035.67 1588.33L1036.33 1588.67L1035.67 1588.33M319 1589L319 1592L320 1592L319 1589M470 1589L469 1593L470 1589M466.333 1592.67L466.667 1593.33L466.333 1592.67M473.333 1597.67L473.667 1598.33L473.333 1597.67M317 1602L317 1603L320 1603L317 1602M1220 1602L1220 1607L1224 1606L1224 1602L1220 1602z" />
    <path style="fill:#231f21; stroke:none;" d="M1222 1604L1223 1605L1222 1604z" />
    <path style="fill:#ffffff; stroke:none;" d="M475 1619L478 1616L475 1619z" />
    <path style="fill:#231f21; stroke:none;" d="M320 1635L321 1636L320 1635z" />
    <path style="fill:#ffffff; stroke:none;" d="M492.667 1637.33L493.333 1637.67L492.667 1637.33M323 1639L324 1640L323 1639M1019 1652L1020 1653L1019 1652M1011 1660L1014 1664L1011 1660M1015 1662L1015 1664L1017 1664L1017 1662L1015 1662z" />
    <path style="fill:#231f21; stroke:none;" d="M1005 1670L1005 1672L1007 1670L1005 1670z" />
    <path style="fill:#ffffff; stroke:none;" d="M514 1671L514 1672L517 1672L514 1671M335 1673L336 1674L335 1673M527 1682L528 1683L527 1682M539 1687L540 1688L539 1687z" />
    <path style="fill:#231f21; stroke:none;" d="M336 1692L337 1693L336 1692z" />
    <path style="fill:#ffffff; stroke:none;" d="M994.667 1696.33L995.333 1696.67L994.667 1696.33M989 1709L989 1712L991 1712L991 1709L989 1709M992 1710L993 1711L992 1710z" />
    <path style="fill:#231f21; stroke:none;" d="M978 1719L979 1720L978 1719z" />
    <path style="fill:#ffffff; stroke:none;" d="M352 1720L352 1721L355 1721L352 1720M579 1720L580 1721L579 1720M1187 1728L1187 1730L1189 1730L1187 1728M590 1730L590 1735L591 1735L590 1730M588.333 1731.67L588.667 1732.33L588.333 1731.67M1188 1731L1189 1732L1188 1731M971 1733L969 1734L969 1735L971 1733M613 1742L614 1743L613 1742M1181 1742L1182 1747L1183 1747L1181 1742M953.333 1747.67L953.667 1748.33L953.333 1747.67M953 1751L954 1752L953 1751M381 1757L382 1758L381 1757M942.333 1757.67L942.667 1758.33L942.333 1757.67M636 1760L637 1761L636 1760M640 1760L641 1761L640 1760z" />
    <path style="fill:#231f21; stroke:none;" d="M651 1765L652 1766L651 1765z" />
    <path style="fill:#ffffff; stroke:none;" d="M932 1765L932 1766L936 1766L932 1765z" />
    <path style="fill:#231f21; stroke:none;" d="M655 1767L656 1768L655 1767z" />
    <path style="fill:#ffffff; stroke:none;" d="M381 1768L381 1769L384 1770L381 1768M923 1769L922 1771L923 1769M662.667 1773.33L663.333 1773.67L662.667 1773.33M666 1774L667 1775L666 1774M663 1775L661 1779L665 1776L663 1775M669 1776L670 1777L669 1776M1170 1776L1171 1777L1170 1776M911.333 1782.67L911.667 1783.33L911.333 1782.67M679 1784L680 1785L679 1784M681.667 1784.33L682.333 1784.67L681.667 1784.33M398.333 1785.67L398.667 1786.33L398.333 1785.67M891 1785L892 1786L891 1785z" />
    <path style="fill:#231f21; stroke:none;" d="M692 1786L693 1787L692 1786z" />
    <path style="fill:#ffffff; stroke:none;" d="M891 1790L893 1791L894 1791L893 1787L891 1790M695 1788L696 1789L695 1788M889 1789L890 1790L889 1789M703.333 1792.67L703.667 1793.33L703.333 1792.67M873 1792L874 1793L873 1792M692 1793L693 1794L692 1793z" />
    <path style="fill:#231f21; stroke:none;" d="M399 1794L404 1798L404 1794L399 1794M721 1796L722 1797L721 1796M727 1797L728 1798L727 1797z" />
    <path style="fill:#ffffff; stroke:none;" d="M877 1797L878 1798L877 1797M852.333 1798.67L852.667 1799.33L852.333 1798.67M707 1800L708 1801L707 1800M724.667 1801.33L725.333 1801.67L724.667 1801.33M735 1801L736 1802L735 1801M738 1801L739 1802L738 1801M764 1804L765 1805L764 1804M811 1808L811 1809L814 1809L811 1808M414 1809L415 1810L414 1809M795 1809L796 1810L795 1809M423 1813L424 1814L423 1813M1143 1825L1144 1826L1143 1825M438 1830L439 1831L438 1830M1137 1836L1138 1837L1137 1836M446 1841L447 1842L446 1841M1125 1845L1125 1848L1126 1848L1125 1845M1116 1863L1120 1859L1119 1858L1116 1863M479 1863L478 1865L480 1865L479 1863M1105 1876L1106 1877L1105 1876z" />
    <path style="fill:#231f21; stroke:none;" d="M490 1880L491 1881L490 1880z" />
    <path style="fill:#ffffff; stroke:none;" d="M1098 1880L1098 1882L1100 1880L1098 1880M499 1883L500 1886L503 1883L499 1883M1084 1897L1085 1898L1084 1897M1082 1899L1083 1900L1082 1899M1074 1905L1075 1906L1074 1905M1059 1911L1060 1912L1059 1911z" />
    <path style="fill:#231f21; stroke:none;" d="M1066 1914L1069 1913L1066 1914M1064 1913L1065 1914L1064 1913z" />
    <path style="fill:#ffffff; stroke:none;" d="M537 1915L537 1916L542 1916L537 1915M1044 1926L1045 1927L1044 1926z" />
    <path style="fill:#231f21; stroke:none;" d="M552 1927L553 1928L552 1927z" />
    <path style="fill:#ffffff; stroke:none;" d="M566 1930L567 1931L566 1930M1034 1930L1034 1935L1035 1935L1034 1930M1018 1942L1019 1943L1018 1942M1012 1943L1011 1945L1013 1945L1012 1943M988 1958L989 1959L988 1958M619 1960L619 1961L623 1960L619 1960M621 1962L622 1963L621 1962z" />
    <path style="fill:#231f21; stroke:none;" d="M978 1964L979 1965L978 1964z" />
    <path style="fill:#ffffff; stroke:none;" d="M644 1972L644 1973L649 1975L644 1972M645 1975L646 1976L645 1975M918 1981L919 1982L918 1981M920 1981L921 1982L920 1981M681 1984L688 1988L687 1984L681 1984M923 1984L924 1985L923 1984M897 1989L900 1987L897 1989M911.667 1988.33L912.333 1988.67L911.667 1988.33M914 1988L915 1989L914 1988M701 1990L702 1991L701 1990M712 1993L713 1994L712 1993M718.333 1994.67L718.667 1995.33L718.333 1994.67M839 1996C838.019 1998.98 836.034 2001.17 840 2002L839 1996M854 1997L855 1998L854 1997M758.333 1998.67L758.667 1999.33L758.333 1998.67M773.333 1998.67L773.667 1999.33L773.333 1998.67M794.667 1998.33L795.333 1998.67L794.667 1998.33z" />
    <path style="fill:#231f21; stroke:none;" d="M858.667 1999.33L859.333 1999.67L858.667 1999.33z" />
    <path style="fill:#ffffff; stroke:none;" d="M841 2000L842 2001L841 2000z" />
    <path style="fill:#231f21; stroke:none;" d="M749.667 2001.33L750.333 2001.67L749.667 2001.33z" />
    <path style="fill:#ffffff; stroke:none;" d="M778.667 2002.33L779.333 2002.67L778.667 2002.33z" />
    <path style="fill:#231f21; stroke:none;" d="M786 2003L787 2004L786 2003z" />
</svg>
