<svg width="61" height="86" viewBox="0 0 61 86" fill="none" xmlns="http://www.w3.org/2000/svg">
    <path d="M59.4103 84.1105C54.4604 84.1105 49.6483 84.2013 44.7781 83.0266C24.3298 78.0944 16.729 56.1912 12.9848 38.0463C11.454 30.6276 11.0026 23.9679 12.8042 16.5497C13.8313 12.3202 16.3203 8.96637 18.7052 5.40996C20.1032 3.32526 18.5072 3.82922 16.6579 4.02502C13.8369 4.32371 11.3796 5.12398 8.76979 6.19275C6.57228 7.09268 0.0503134 9.95774 2.20639 8.96262C3.37163 8.42482 4.50746 8.11497 5.75906 7.81854C11.4828 6.46293 16.2486 2.43443 22.3181 2.2788C23.627 2.24524 23.7804 2.7919 24.1847 4.02502C25.0283 6.59776 26.307 8.70804 27.9783 10.8293C29.3063 12.5148 30.6879 15.2134 30.6879 17.4529" stroke="#1B1815" stroke-width="3" stroke-linecap="round" />
</svg>
    