<svg width="76" height="76" viewBox="0 0 76 76" fill="none" xmlns="http://www.w3.org/2000/svg">
    <path d="M1.9707 3.42197C7.7439 2.40317 12.5671 1.56384 18.5899 1.88649C28.669 2.42645 39.3467 5.3785 45.9876 13.5079C52.1659 21.071 54.4799 31.5174 56.3746 40.8454C57.9004 48.357 58.4942 55.6372 58.7531 63.2753C58.8472 66.0514 59.3957 69.5342 58.452 72.2473C57.8271 74.0439 57.5665 73.9889 56.1639 72.5484C55.4437 71.8088 47.3872 63.9862 48.4263 63.1549C50.4848 61.5081 54.6954 70.6002 55.0499 71.2839C56.7697 74.6006 57.1631 73.1677 59.4155 71.2839C64.3823 67.1298 68.6222 62.3429 73.5057 58.1571" stroke="#1B1815" stroke-width="3" stroke-linecap="round" />
</svg>
    